<?xml version="1.0" encoding="UTF-8" standalone="no"?>
<!DOCTYPE svg PUBLIC "-//W3C//DTD SVG 1.1//EN" "http://www.w3.org/Graphics/SVG/1.1/DTD/svg11.dtd">
<svg width="100%" height="100%" viewBox="0 0 128 128" version="1.1" xmlns="http://www.w3.org/2000/svg" xmlns:xlink="http://www.w3.org/1999/xlink" xml:space="preserve" xmlns:serif="http://www.serif.com/" style="fill-rule:evenodd;clip-rule:evenodd;stroke-linejoin:round;stroke-miterlimit:2;">
    <g transform="matrix(1.04731,0,0,1.04179,-2.36051,-6.41284)">
        <path d="M122.638,40.401C122.638,22.234 107.967,7.485 89.895,7.485L36.352,7.485C18.281,7.485 3.609,22.234 3.609,40.401L3.609,94.333C3.609,112.5 18.281,127.249 36.352,127.249L89.895,127.249C107.967,127.249 122.638,112.5 122.638,94.333L122.638,40.401Z" style="fill:rgb(54,114,228);"/>
    </g>
    <path d="M10.335,9.902C10.335,9.88 10.318,9.863 10.296,9.863L10.218,9.863C10.196,9.863 10.179,9.88 10.179,9.902L10.179,10.605C10.179,10.627 10.196,10.645 10.218,10.645L10.296,10.645C10.318,10.645 10.335,10.627 10.335,10.605L10.335,9.902Z" style="fill:rgb(54,114,228);"/>
    <g transform="matrix(1.81693,-0.0306272,0.0295399,1.75243,-31.1878,-45.477)">
        <path d="M27.245,41.722C26.387,43.026 26.577,44.784 27.692,45.859C31.182,49.236 45.175,62.729 45.175,62.729L27.915,79.219C24.352,82.451 28.493,88.484 33.24,85.329C33.24,85.329 46.131,73.1 52.899,66.679C53.933,65.698 54.519,64.31 54.513,62.857C54.506,61.404 53.908,60.021 52.865,59.05C46.563,53.183 34.95,42.371 32.743,40.316C32.043,39.664 31.087,39.395 30.165,39.591C29.023,39.85 27.926,40.693 27.245,41.722Z" style="fill:white;"/>
    </g>
    <g transform="matrix(1.14407,0,0,1.23214,-2.75217,-3.31835)">
        <path d="M94.015,83.188C94.015,81.979 92.958,80.998 91.657,80.998L59.46,80.998C58.159,80.998 57.102,81.979 57.102,83.188L57.102,87.567C57.102,88.776 58.159,89.757 59.46,89.757L91.657,89.757C92.958,89.757 94.015,88.776 94.015,87.567L94.015,83.188Z" style="fill:white;"/>
    </g>
</svg>
