<?xml version="1.0" encoding="UTF-8" standalone="no"?>
<!DOCTYPE svg PUBLIC "-//W3C//DTD SVG 1.1//EN" "http://www.w3.org/Graphics/SVG/1.1/DTD/svg11.dtd">
<svg width="100%" height="100%" viewBox="0 0 128 128" version="1.1" xmlns="http://www.w3.org/2000/svg" xmlns:xlink="http://www.w3.org/1999/xlink" xml:space="preserve" xmlns:serif="http://www.serif.com/" style="fill-rule:evenodd;clip-rule:evenodd;stroke-linejoin:round;stroke-miterlimit:2;">
    <g>
        <path d="M121.959,28.462L121.959,100.375C121.959,112.538 112.084,122.413 99.921,122.413L27.465,122.413C15.302,122.413 5.428,112.538 5.428,100.375L5.428,28.462C5.428,16.299 15.302,6.424 27.465,6.424L99.921,6.424C112.084,6.424 121.959,16.299 121.959,28.462ZM19.524,38.473C18.383,40.151 18.68,42.381 20.222,43.723C25.05,47.936 44.405,64.77 44.405,64.77L21.241,86.131C16.455,90.322 22.227,97.898 28.627,93.777C28.627,93.777 45.93,77.933 55.015,69.614C56.402,68.343 57.171,66.565 57.132,64.718C57.091,62.871 56.247,61.126 54.805,59.916C46.092,52.601 30.037,39.121 26.986,36.559C26.018,35.746 24.709,35.426 23.457,35.697C21.907,36.052 20.43,37.149 19.524,38.473ZM101.041,99.102C101.041,97.725 99.99,96.607 98.698,96.607L66.708,96.607C65.415,96.607 64.365,97.725 64.365,99.102L64.365,104.091C64.365,105.469 65.415,106.586 66.708,106.586L98.698,106.586C99.99,106.586 101.041,105.469 101.041,104.091L101.041,99.102ZM10.335,9.902L10.335,10.605C10.335,10.627 10.318,10.645 10.296,10.645L10.218,10.645C10.196,10.645 10.179,10.627 10.179,10.605L10.179,9.902C10.179,9.88 10.196,9.863 10.218,9.863L10.296,9.863C10.318,9.863 10.335,9.88 10.335,9.902Z" style="fill:rgb(0,132,255);"/>
    </g>
</svg>
