<?xml version="1.0" encoding="UTF-8" standalone="no"?>
<!DOCTYPE svg PUBLIC "-//W3C//DTD SVG 1.1//EN" "http://www.w3.org/Graphics/SVG/1.1/DTD/svg11.dtd">
<svg width="100%" height="100%" viewBox="0 0 8000 3556" version="1.1" xmlns="http://www.w3.org/2000/svg" xmlns:xlink="http://www.w3.org/1999/xlink" xml:space="preserve" xmlns:serif="http://www.serif.com/" style="fill-rule:evenodd;clip-rule:evenodd;stroke-linejoin:round;stroke-miterlimit:2;">
    <g transform="matrix(5.55556,0,0,5.55556,0,0)">
        <g transform="matrix(1.91943,0,0,2.0885,-1354.51,-404.311)">
            <clipPath id="_clip1">
                <rect x="704.772" y="303.346" width="749.998" height="196.654"/>
            </clipPath>
            <g clip-path="url(#_clip1)">
                <path d="M-1703.6,500.203L728.983,303.039L728.95,302.632L-1703.63,499.796" style="fill:rgb(88,196,193);fill-rule:nonzero;"/>
                <path d="M-1511.64,500.203L753.177,303.039L753.142,302.633L-1511.67,499.797" style="fill:rgb(88,196,193);fill-rule:nonzero;"/>
                <path d="M-1319.68,500.203L777.372,303.039L777.334,302.633L-1319.72,499.797" style="fill:rgb(88,196,193);fill-rule:nonzero;"/>
                <path d="M-1127.72,500.203L801.567,303.039L801.525,302.633L-1127.76,499.797" style="fill:rgb(88,196,193);fill-rule:nonzero;"/>
                <path d="M-935.759,500.203L825.763,303.039L825.718,302.633L-935.805,499.797" style="fill:rgb(88,196,193);fill-rule:nonzero;"/>
                <path d="M-743.799,500.203L849.959,303.039L849.909,302.633L-743.849,499.797" style="fill:rgb(88,196,193);fill-rule:nonzero;"/>
                <path d="M-551.839,500.202L874.155,303.038L874.099,302.634L-551.895,499.798" style="fill:rgb(88,196,193);fill-rule:nonzero;"/>
                <path d="M-359.877,500.202L898.352,303.038L898.289,302.634L-359.941,499.798" style="fill:rgb(88,196,193);fill-rule:nonzero;"/>
                <path d="M-167.916,500.201L922.55,303.037L922.478,302.635L-167.988,499.799" style="fill:rgb(88,196,193);fill-rule:nonzero;"/>
                <path d="M24.048,500.2L946.751,303.036L946.666,302.636L23.963,499.8" style="fill:rgb(88,196,193);fill-rule:nonzero;"/>
                <path d="M216.015,500.198L970.953,303.033L970.85,302.638L215.912,499.802" style="fill:rgb(88,196,193);fill-rule:nonzero;"/>
                <path d="M407.986,500.194L995.16,303.029L995.03,302.642L407.856,499.806" style="fill:rgb(88,196,193);fill-rule:nonzero;"/>
                <path d="M599.965,500.185L1019.38,303.021L1019.2,302.651L599.791,499.815" style="fill:rgb(88,196,193);fill-rule:nonzero;"/>
                <path d="M791.962,500.161L1043.61,302.997L1043.36,302.675L791.71,499.839" style="fill:rgb(88,196,193);fill-rule:nonzero;"/>
                <path d="M983.981,500.08L1067.86,302.916L1067.49,302.756L983.605,499.92" style="fill:rgb(88,196,193);fill-rule:nonzero;"/>
                <path d="M1175.94,499.92L1092.06,302.756L1091.68,302.916L1175.56,500.08" style="fill:rgb(88,196,193);fill-rule:nonzero;"/>
                <path d="M1367.83,499.839L1116.19,302.675L1115.94,302.997L1367.58,500.161" style="fill:rgb(88,196,193);fill-rule:nonzero;"/>
                <path d="M1559.75,499.815L1140.34,302.651L1140.17,303.021L1559.58,500.185" style="fill:rgb(88,196,193);fill-rule:nonzero;"/>
                <path d="M1751.69,499.806L1164.51,302.642L1164.38,303.029L1751.56,500.194" style="fill:rgb(88,196,193);fill-rule:nonzero;"/>
                <path d="M1943.63,499.802L1188.69,302.638L1188.59,303.033L1943.53,500.198" style="fill:rgb(88,196,193);fill-rule:nonzero;"/>
                <path d="M2135.58,499.8L1212.88,302.636L1212.79,303.036L2135.5,500.2" style="fill:rgb(88,196,193);fill-rule:nonzero;"/>
                <path d="M2327.53,499.799L1237.07,302.635L1236.99,303.037L2327.46,500.201" style="fill:rgb(88,196,193);fill-rule:nonzero;"/>
                <path d="M2519.48,499.798L1261.26,302.634L1261.19,303.038L2519.42,500.202" style="fill:rgb(88,196,193);fill-rule:nonzero;"/>
                <path d="M2711.44,499.798L1285.45,302.634L1285.39,303.038L2711.38,500.202" style="fill:rgb(88,196,193);fill-rule:nonzero;"/>
                <path d="M2903.39,499.797L1309.64,302.633L1309.59,303.039L2903.34,500.203" style="fill:rgb(88,196,193);fill-rule:nonzero;"/>
                <path d="M3095.35,499.797L1333.83,302.633L1333.78,303.039L3095.3,500.203" style="fill:rgb(88,196,193);fill-rule:nonzero;"/>
                <path d="M3287.3,499.797L1358.02,302.633L1357.98,303.039L3287.26,500.203" style="fill:rgb(88,196,193);fill-rule:nonzero;"/>
                <path d="M3479.26,499.797L1382.21,302.633L1382.17,303.039L3479.22,500.203" style="fill:rgb(88,196,193);fill-rule:nonzero;"/>
                <path d="M3671.22,499.797L1406.4,302.633L1406.37,303.039L3671.18,500.203" style="fill:rgb(88,196,193);fill-rule:nonzero;"/>
                <path d="M3863.17,499.796L1430.59,302.632L1430.56,303.039L3863.14,500.203" style="fill:rgb(88,196,193);fill-rule:nonzero;"/>
                <path d="M4055.13,499.796L1454.79,302.632L1454.76,303.04L4055.1,500.204" style="fill:rgb(88,196,193);fill-rule:nonzero;"/>
                <path d="M704.772,485.774L1454.77,485.774L1454.77,485.366L704.772,485.366" style="fill:rgb(88,196,193);fill-rule:nonzero;"/>
                <path d="M704.772,459.515L1454.77,459.515L1454.77,459.106L704.772,459.106" style="fill:rgb(88,196,193);fill-rule:nonzero;"/>
                <path d="M704.772,436.19L1454.77,436.19L1454.77,435.781L704.772,435.781" style="fill:rgb(88,196,193);fill-rule:nonzero;"/>
                <path d="M704.772,415.607L1454.77,415.607L1454.77,415.198L704.772,415.198" style="fill:rgb(88,196,193);fill-rule:nonzero;"/>
                <path d="M704.772,397.568L1454.77,397.568L1454.77,397.16L704.772,397.16" style="fill:rgb(88,196,193);fill-rule:nonzero;"/>
                <path d="M704.772,381.881L1454.77,381.881L1454.77,381.473L704.772,381.473" style="fill:rgb(88,196,193);fill-rule:nonzero;"/>
                <path d="M704.772,368.35L1454.77,368.35L1454.77,367.941L704.772,367.941" style="fill:rgb(88,196,193);fill-rule:nonzero;"/>
                <path d="M704.772,356.778L1454.77,356.778L1454.77,356.37L704.772,356.37" style="fill:rgb(88,196,193);fill-rule:nonzero;"/>
                <path d="M704.772,346.974L1454.77,346.974L1454.77,346.565L704.772,346.565" style="fill:rgb(88,196,193);fill-rule:nonzero;"/>
                <path d="M704.772,338.739L1454.77,338.739L1454.77,338.331L704.772,338.331" style="fill:rgb(88,196,193);fill-rule:nonzero;"/>
                <path d="M704.772,331.88L1454.77,331.88L1454.77,331.472L704.772,331.472" style="fill:rgb(88,196,193);fill-rule:nonzero;"/>
                <path d="M704.772,326.202L1454.77,326.202L1454.77,325.794L704.772,325.794" style="fill:rgb(88,196,193);fill-rule:nonzero;"/>
                <path d="M704.772,321.509L1454.77,321.509L1454.77,321.1L704.772,321.1" style="fill:rgb(88,196,193);fill-rule:nonzero;"/>
                <path d="M704.772,317.607L1454.77,317.607L1454.77,317.198L704.772,317.198" style="fill:rgb(88,196,193);fill-rule:nonzero;"/>
                <path d="M704.772,314.3L1454.77,314.3L1454.77,313.892L704.772,313.892" style="fill:rgb(88,196,193);fill-rule:nonzero;"/>
                <path d="M704.772,311.393L1454.77,311.393L1454.77,310.984L704.772,310.984" style="fill:rgb(88,196,193);fill-rule:nonzero;"/>
                <path d="M704.772,308.691L1454.77,308.691L1454.77,308.283L704.772,308.283" style="fill:rgb(88,196,193);fill-rule:nonzero;"/>
                <path d="M704.772,306L1454.77,306L1454.77,305.592L704.772,305.592" style="fill:rgb(88,196,193);fill-rule:nonzero;"/>
                <path d="M704.772,303.124L1454.77,303.124L1454.77,302.716L704.772,302.716" style="fill:rgb(88,196,193);fill-rule:nonzero;"/>
                <path d="M704.772,303.086L1454.77,303.086L1454.77,302.586L704.772,302.586" style="fill:white;fill-rule:nonzero;"/>
                <path d="M906.019,201.639C905.686,201.639 905.417,201.369 905.417,201.037C905.417,200.704 905.686,200.435 906.019,200.435C906.351,200.435 906.621,200.704 906.621,201.037C906.621,201.369 906.351,201.639 906.019,201.639Z" style="fill:url(#_Radial2);"/>
                <path d="M903.922,224.808C903.59,224.808 903.321,224.539 903.321,224.206C903.321,223.873 903.59,223.604 903.922,223.604C904.255,223.604 904.525,223.873 904.525,224.206C904.525,224.539 904.255,224.808 903.922,224.808Z" style="fill:url(#_Radial3);"/>
                <path d="M908.838,211.599C908.505,211.599 908.235,211.329 908.235,210.997C908.235,210.664 908.505,210.395 908.838,210.395C909.17,210.395 909.439,210.664 909.439,210.997C909.439,211.329 909.17,211.599 908.838,211.599Z" style="fill:url(#_Radial4);"/>
                <path d="M915.921,214.129C915.589,214.129 915.319,213.859 915.319,213.527C915.319,213.195 915.589,212.925 915.921,212.925C916.254,212.925 916.523,213.195 916.523,213.527C916.523,213.859 916.254,214.129 915.921,214.129Z" style="fill:url(#_Radial5);"/>
                <path d="M918.885,232.352C918.552,232.352 918.282,232.082 918.282,231.75C918.282,231.417 918.552,231.148 918.885,231.148C919.217,231.148 919.486,231.417 919.486,231.75C919.486,232.082 919.217,232.352 918.885,232.352Z" style="fill:url(#_Radial6);"/>
                <path d="M849.696,241.304C849.364,241.304 849.095,241.034 849.095,240.702C849.095,240.369 849.364,240.1 849.696,240.1C850.029,240.1 850.299,240.369 850.299,240.702C850.299,241.034 850.029,241.304 849.696,241.304Z" style="fill:url(#_Radial7);"/>
                <path d="M819.44,235.21C819.107,235.21 818.839,234.941 818.839,234.608C818.839,234.275 819.107,234.006 819.44,234.006C819.772,234.006 820.042,234.275 820.042,234.608C820.042,234.941 819.772,235.21 819.44,235.21Z" style="fill:url(#_Radial8);"/>
                <path d="M792.192,230.346C791.86,230.346 791.59,230.077 791.59,229.744C791.59,229.412 791.86,229.142 792.192,229.142C792.525,229.142 792.795,229.412 792.795,229.744C792.795,230.077 792.525,230.346 792.192,230.346Z" style="fill:url(#_Radial9);"/>
                <path d="M774.346,242.547C774.013,242.547 773.743,242.277 773.743,241.945C773.743,241.612 774.013,241.343 774.346,241.343C774.678,241.343 774.947,241.612 774.947,241.945C774.947,242.277 774.678,242.547 774.346,242.547Z" style="fill:url(#_Radial10);"/>
                <path d="M751.608,239.043C751.275,239.043 751.006,238.773 751.006,238.441C751.006,238.108 751.275,237.839 751.608,237.839C751.94,237.839 752.21,238.108 752.21,238.441C752.21,238.773 751.94,239.043 751.608,239.043Z" style="fill:url(#_Radial11);"/>
                <path d="M1265.63,213.302C1265.3,213.302 1265.03,213.032 1265.03,212.7C1265.03,212.367 1265.3,212.097 1265.63,212.097C1265.97,212.097 1266.23,212.367 1266.23,212.7C1266.23,213.032 1265.97,213.302 1265.63,213.302Z" style="fill:url(#_Radial12);"/>
                <path d="M1314.5,205.482C1314.17,205.482 1313.9,205.213 1313.9,204.88C1313.9,204.547 1314.17,204.278 1314.5,204.278C1314.84,204.278 1315.11,204.547 1315.11,204.88C1315.11,205.213 1314.84,205.482 1314.5,205.482Z" style="fill:url(#_Radial13);"/>
                <path d="M1357.74,201.035C1357.41,201.035 1357.14,200.765 1357.14,200.433C1357.14,200.1 1357.41,199.831 1357.74,199.831C1358.07,199.831 1358.34,200.1 1358.34,200.433C1358.34,200.765 1358.07,201.035 1357.74,201.035Z" style="fill:url(#_Radial14);"/>
                <path d="M1332.08,209.828C1331.75,209.828 1331.48,209.559 1331.48,209.227C1331.48,208.894 1331.75,208.625 1332.08,208.625C1332.41,208.625 1332.68,208.894 1332.68,209.227C1332.68,209.559 1332.41,209.828 1332.08,209.828Z" style="fill:url(#_Radial15);"/>
                <path d="M1299,212.826C1298.67,212.826 1298.4,212.557 1298.4,212.224C1298.4,211.892 1298.67,211.622 1299,211.622C1299.34,211.622 1299.61,211.892 1299.61,212.224C1299.61,212.557 1299.34,212.826 1299,212.826Z" style="fill:url(#_Radial16);"/>
                <path d="M1274.41,219.894C1274.08,219.894 1273.81,219.625 1273.81,219.292C1273.81,218.96 1274.08,218.69 1274.41,218.69C1274.74,218.69 1275.01,218.96 1275.01,219.292C1275.01,219.625 1274.74,219.894 1274.41,219.894Z" style="fill:url(#_Radial17);"/>
                <path d="M1261.97,221.592C1261.63,221.592 1261.36,221.323 1261.36,220.991C1261.36,220.658 1261.63,220.389 1261.97,220.389C1262.3,220.389 1262.57,220.658 1262.57,220.991C1262.57,221.323 1262.3,221.592 1261.97,221.592Z" style="fill:url(#_Radial18);"/>
                <path d="M1264.26,234.564C1263.93,234.564 1263.66,234.294 1263.66,233.962C1263.66,233.629 1263.93,233.36 1264.26,233.36C1264.59,233.36 1264.86,233.629 1264.86,233.962C1264.86,234.294 1264.59,234.564 1264.26,234.564Z" style="fill:url(#_Radial19);"/>
                <path d="M1363.55,228.665C1363.22,228.665 1362.95,228.396 1362.95,228.064C1362.95,227.731 1363.22,227.462 1363.55,227.462C1363.88,227.462 1364.15,227.731 1364.15,228.064C1364.15,228.396 1363.88,228.665 1363.55,228.665Z" style="fill:url(#_Radial20);"/>
                <path d="M1380.7,223.628C1380.36,223.628 1380.09,223.359 1380.09,223.026C1380.09,222.693 1380.36,222.424 1380.7,222.424C1381.03,222.424 1381.3,222.693 1381.3,223.026C1381.3,223.359 1381.03,223.628 1380.7,223.628Z" style="fill:url(#_Radial21);"/>
                <path d="M1408.86,215.532C1408.53,215.532 1408.26,215.262 1408.26,214.93C1408.26,214.598 1408.53,214.329 1408.86,214.329C1409.19,214.329 1409.46,214.598 1409.46,214.93C1409.46,215.262 1409.19,215.532 1408.86,215.532Z" style="fill:url(#_Radial22);"/>
                <path d="M1411.17,230.241C1410.84,230.241 1410.57,229.972 1410.57,229.639C1410.57,229.306 1410.84,229.037 1411.17,229.037C1411.5,229.037 1411.77,229.306 1411.77,229.639C1411.77,229.972 1411.5,230.241 1411.17,230.241Z" style="fill:url(#_Radial23);"/>
                <path d="M1421.34,231.734C1421.01,231.734 1420.74,231.465 1420.74,231.132C1420.74,230.8 1421.01,230.53 1421.34,230.53C1421.67,230.53 1421.94,230.8 1421.94,231.132C1421.94,231.465 1421.67,231.734 1421.34,231.734Z" style="fill:url(#_Radial24);"/>
                <path d="M1429.43,226.979C1429.09,226.979 1428.82,226.709 1428.82,226.377C1428.82,226.044 1429.09,225.774 1429.43,225.774C1429.76,225.774 1430.03,226.044 1430.03,226.377C1430.03,226.709 1429.76,226.979 1429.43,226.979Z" style="fill:url(#_Radial25);"/>
                <path d="M1419.38,225.447C1419.05,225.447 1418.78,225.178 1418.78,224.845C1418.78,224.513 1419.05,224.244 1419.38,224.244C1419.71,224.244 1419.98,224.513 1419.98,224.845C1419.98,225.178 1419.71,225.447 1419.38,225.447Z" style="fill:url(#_Radial26);"/>
                <path d="M1332.01,232.167C1331.68,232.167 1331.41,231.897 1331.41,231.565C1331.41,231.232 1331.68,230.963 1332.01,230.963C1332.34,230.963 1332.61,231.232 1332.61,231.565C1332.61,231.897 1332.34,232.167 1332.01,232.167Z" style="fill:url(#_Radial27);"/>
                <path d="M1310.76,239.725C1310.43,239.725 1310.16,239.455 1310.16,239.123C1310.16,238.79 1310.43,238.521 1310.76,238.521C1311.1,238.521 1311.37,238.79 1311.37,239.123C1311.37,239.455 1311.1,239.725 1310.76,239.725Z" style="fill:url(#_Radial28);"/>
                <path d="M1332.03,214.162C1331.7,214.162 1331.43,213.893 1331.43,213.56C1331.43,213.227 1331.7,212.958 1332.03,212.958C1332.36,212.958 1332.63,213.227 1332.63,213.56C1332.63,213.893 1332.36,214.162 1332.03,214.162Z" style="fill:url(#_Radial29);"/>
                <path d="M1438.52,202.597C1438.19,202.597 1437.92,202.328 1437.92,201.996C1437.92,201.663 1438.19,201.394 1438.52,201.394C1438.85,201.394 1439.12,201.663 1439.12,201.996C1439.12,202.328 1438.85,202.597 1438.52,202.597Z" style="fill:url(#_Radial30);"/>
                <path d="M736.084,196.945C735.751,196.945 735.482,196.675 735.482,196.343C735.482,196.01 735.751,195.741 736.084,195.741C736.417,195.741 736.685,196.01 736.685,196.343C736.685,196.675 736.417,196.945 736.084,196.945Z" style="fill:url(#_Radial31);"/>
                <path d="M680.298,303.385L1355.21,303.385C1370.14,303.385 1386.05,303.371 1401.86,303.358C1414.86,303.349 1455.35,303.339 1467.62,303.339C1466.39,298.993 1463.84,291.629 1462.99,289.55C1460.53,283.518 1459.44,281.429 1456.51,277.88C1444.03,262.794 1435.31,262.843 1433.65,260.857C1427.24,259.373 1421.87,259.449 1404.93,255.805C1384.32,251.37 1356.91,249.462 1341.98,249.462C1329.15,249.462 1319.83,252.765 1310.73,256.274C1300.43,260.248 1290.4,264.487 1275.86,264.487C1263.79,264.487 1245.32,260.766 1226.13,256.625C1202.08,251.439 1180.01,247.637 1164.9,247.637C1148,247.637 1134.26,249.98 1123.86,254.523C1112.67,259.412 1101.74,264.487 1083.55,264.487C1069.52,264.487 1059.09,264.807 1044.52,257.617C1029.52,250.213 1023.95,245.271 1010.12,245.464C998.553,245.625 984.474,245.448 970.243,254.56C953.779,265.103 918.578,274.813 900.056,274.813C887.144,274.813 880.268,269.646 873.188,264.652C866.571,259.986 857.709,255.928 845.641,255.928C830.37,255.928 813.014,258.719 793.834,261.775C776.772,264.494 764.502,268.673 753.205,272C746.593,273.61 735.797,275.751 735.797,282.659C735.797,287.016 680.298,291.372 680.298,295.729L680.298,303.385Z" style="fill:rgb(41,29,69);fill-rule:nonzero;"/>
                <path d="M680.485,303.31C679.995,302.177 679.766,301.143 679.766,300.197C679.764,296.92 682.52,294.648 686.884,292.967C693.425,290.449 703.529,289.293 713.074,288.064C722.622,286.832 731.607,285.535 735.954,282.699C739.409,280.442 740.716,278.376 742.668,276.588C744.62,274.799 747.225,273.265 753.315,272.044L753.287,271.9C747.184,273.122 744.54,274.671 742.569,276.479C740.598,278.288 739.308,280.333 735.874,282.576C730.152,286.319 716.091,287.392 703.475,289.176C697.165,290.07 691.214,291.144 686.832,292.83C682.454,294.514 679.621,296.822 679.619,300.197C679.619,301.167 679.854,302.221 680.35,303.368L680.485,303.31Z" style="fill:rgb(86,197,205);fill-rule:nonzero;"/>
                <path d="M698.045,303.311C697.536,302.129 697.299,301.056 697.299,300.078C697.298,297.002 699.646,294.827 703.375,293.177C708.964,290.705 717.616,289.447 725.848,288.123C734.081,286.798 741.891,285.412 745.835,282.65L745.867,282.628L745.867,282.59C745.88,279.501 747.598,276.879 751.052,274.706C754.241,272.738 757.733,271.028 761.529,269.575L761.477,269.438C757.672,270.894 754.172,272.608 750.974,274.581C747.494,276.767 745.732,279.442 745.72,282.59L745.793,282.59L745.751,282.53C740.563,286.173 728.417,287.433 717.58,289.328C712.159,290.276 707.064,291.385 703.316,293.043C699.57,294.697 697.153,296.914 697.152,300.078C697.152,301.08 697.395,302.173 697.91,303.369L698.045,303.311Z" style="fill:rgb(86,197,205);fill-rule:nonzero;"/>
                <path d="M725.27,303.309C724.675,302.007 724.404,300.834 724.404,299.769C724.405,297.343 725.808,295.463 728.049,293.89C734.775,289.17 748.958,287.376 754.434,282.353C760.229,277.023 762.861,271.834 770.371,267.003L770.292,266.88C762.751,271.732 760.109,276.938 754.334,282.245C750.735,285.557 743.224,287.473 736.614,289.779C733.308,290.932 730.227,292.185 727.965,293.77C725.704,295.354 724.257,297.281 724.258,299.769C724.258,300.859 724.535,302.054 725.137,303.37L725.27,303.309Z" style="fill:rgb(86,197,205);fill-rule:nonzero;"/>
                <path d="M753.462,303.336C753.449,303.072 753.442,302.808 753.442,302.542C753.434,289.81 768.686,274.892 780.135,264.512L780.037,264.404C768.589,274.794 753.304,289.697 753.295,302.542C753.295,302.81 753.302,303.077 753.316,303.344L753.462,303.336Z" style="fill:rgb(86,197,205);fill-rule:nonzero;"/>
                <path d="M773.903,303.333C773.767,301.547 773.698,299.848 773.698,298.223C773.7,284.086 778.905,275.472 791.121,262.286L791.014,262.186C778.791,275.373 773.55,284.045 773.552,298.223C773.552,299.853 773.621,301.555 773.756,303.344L773.903,303.333Z" style="fill:rgb(86,197,205);fill-rule:nonzero;"/>
                <path d="M783.984,303.331C783.55,298.594 782.545,293.382 782.545,288.31C782.545,285.212 782.92,282.168 784.026,279.316C787.034,271.54 796.522,267.102 802.994,260.384L802.888,260.283C796.448,266.978 786.939,271.41 783.889,279.263C782.774,282.137 782.398,285.201 782.398,288.31C782.398,293.401 783.405,298.618 783.838,303.345L783.984,303.331Z" style="fill:rgb(86,197,205);fill-rule:nonzero;"/>
                <path d="M793.584,303.33C792.905,297.312 790.114,289.826 790.116,283.176C790.116,281.055 790.399,279.021 791.122,277.146C794.276,268.949 806.423,265.138 814.422,258.675L814.33,258.561C806.369,265.008 794.196,268.799 790.985,277.093C790.254,278.989 789.969,281.042 789.969,283.176C789.97,289.864 792.765,297.356 793.438,303.346L793.584,303.33Z" style="fill:rgb(86,197,205);fill-rule:nonzero;"/>
                <path d="M803.183,303.328C802.298,296.474 797.045,286.899 797.048,279.331C797.048,277.756 797.275,276.27 797.814,274.913C801.164,266.436 815.929,263.28 825.346,257.283L825.267,257.158C815.89,263.148 801.1,266.269 797.677,274.859C797.13,276.237 796.901,277.742 796.901,279.331C796.904,286.958 802.164,296.538 803.038,303.346L803.183,303.328Z" style="fill:rgb(86,197,205);fill-rule:nonzero;"/>
                <path d="M812.783,303.328C811.759,295.996 804.276,284.775 804.281,276.778C804.281,275.468 804.481,274.247 804.94,273.143C806.739,268.814 811.842,266.021 817.801,263.613C823.759,261.203 830.563,259.177 835.751,256.343L835.681,256.214C830.514,259.037 823.713,261.064 817.746,263.476C811.781,265.89 806.64,268.686 804.805,273.087C804.336,274.212 804.134,275.454 804.134,276.778C804.139,284.85 811.631,296.073 812.637,303.348L812.783,303.328Z" style="fill:rgb(86,197,205);fill-rule:nonzero;"/>
                <path d="M822.383,303.329C821.316,295.853 812.729,283.748 812.735,275.656C812.735,274.458 812.922,273.35 813.347,272.359C815.23,267.956 820.64,265.296 826.915,263.029C833.189,260.761 840.317,258.882 845.626,255.994L845.556,255.865C840.271,258.74 833.147,260.62 826.865,262.891C820.585,265.163 815.135,267.822 813.212,272.301C812.778,273.315 812.588,274.443 812.588,275.656C812.594,283.83 821.191,295.935 822.237,303.349L822.383,303.329Z" style="fill:rgb(86,197,205);fill-rule:nonzero;"/>
                <path d="M831.98,303.328C831.077,296.204 824.567,285.327 824.571,277.371C824.571,275.853 824.807,274.442 825.362,273.185C829.093,264.698 844.646,262.599 854.576,256.776L854.501,256.65C844.616,262.466 829.041,264.524 825.228,273.126C824.663,274.406 824.424,275.837 824.424,277.371C824.428,285.394 830.946,296.275 831.835,303.346L831.98,303.328Z" style="fill:rgb(86,197,205);fill-rule:nonzero;"/>
                <path d="M841.58,303.331C841.128,297.294 838.503,289.339 838.504,282.382C838.504,279.76 838.876,277.282 839.875,275.102C843.395,267.393 854.554,265.03 862.287,258.883L862.196,258.768C854.509,264.896 843.324,267.24 839.741,275.041C838.731,277.247 838.357,279.747 838.357,282.382C838.358,289.373 840.986,297.333 841.434,303.342L841.58,303.331Z" style="fill:rgb(86,197,205);fill-rule:nonzero;"/>
                <path d="M851.181,303.339C851.266,295.282 851.212,285.134 854.59,277.271C857.242,271.092 864.153,267.488 868.862,261.926L868.75,261.832C864.072,267.368 857.143,270.97 854.455,277.213C851.06,285.118 851.121,295.281 851.034,303.337L851.181,303.339Z" style="fill:rgb(86,197,205);fill-rule:nonzero;"/>
                <path d="M860.781,303.35C862.4,290.161 869.881,278.223 874.432,265.508L874.293,265.459C869.752,278.154 862.262,290.099 860.635,303.332L860.781,303.35Z" style="fill:rgb(86,197,205);fill-rule:nonzero;"/>
                <path d="M870.38,303.363C873.577,292.382 880.263,284.389 880.266,273.826C880.266,272.303 880.127,270.727 879.818,269.081L879.673,269.108C879.981,270.745 880.119,272.312 880.119,273.826C880.123,284.321 873.452,292.305 870.239,303.322L870.38,303.363Z" style="fill:rgb(86,197,205);fill-rule:nonzero;"/>
                <path d="M879.979,303.368C884.017,293.519 891.104,288.875 891.116,282.47C891.116,279.57 889.651,276.334 885.803,272.123L885.695,272.222C889.531,276.422 890.969,279.624 890.969,282.47C890.981,288.756 883.909,293.427 879.843,303.312L879.979,303.368Z" style="fill:rgb(86,197,205);fill-rule:nonzero;"/>
                <path d="M889.584,303.347C890.772,295.199 896.454,289.1 906.669,285.038L906.759,285.002L906.7,284.925C903.44,280.636 898.865,277.05 892.977,274.165L892.912,274.296C898.784,277.174 903.34,280.747 906.583,285.014L906.642,284.97L906.615,284.901C896.373,288.97 890.633,295.116 889.438,303.326L889.584,303.348L889.584,303.347Z" style="fill:rgb(86,197,205);fill-rule:nonzero;"/>
                <path d="M899.181,303.347C900.186,294.896 906.124,288.936 917.045,285.451L917.151,285.417L917.078,285.333C913.367,281.002 908.32,277.463 901.942,274.717L901.884,274.852C908.246,277.591 913.272,281.117 916.967,285.429L917.023,285.381L917,285.311C906.051,288.8 900.045,294.811 899.035,303.329L899.181,303.347Z" style="fill:rgb(86,197,205);fill-rule:nonzero;"/>
                <path d="M908.782,303.348C909.83,294.808 915.855,288.681 926.907,284.95L927.005,284.918L926.942,284.836C923.603,280.479 919.053,276.734 913.298,273.6L913.228,273.729C918.969,276.855 923.501,280.587 926.826,284.926L926.884,284.881L926.861,284.811C915.78,288.546 909.69,294.723 908.636,303.33L908.782,303.348Z" style="fill:rgb(86,197,205);fill-rule:nonzero;"/>
                <path d="M918.376,303.371C920.152,299.362 921.93,295.354 923.707,291.346L923.64,291.316L923.649,291.389C927.509,290.891 930.409,290.007 932.351,288.726C934.294,287.448 935.276,285.761 935.275,283.692L935.274,283.575L935.2,283.576L935.273,283.589C935.332,283.263 935.36,282.943 935.36,282.63C935.347,278.181 929.726,275.141 926.354,271.085L926.242,271.179C929.651,275.257 935.226,278.315 935.213,282.63C935.213,282.934 935.186,283.245 935.128,283.563L935.127,283.57L935.127,283.577L935.128,283.692C935.126,285.712 934.182,287.341 932.271,288.604C930.359,289.865 927.478,290.748 923.63,291.244L923.589,291.249L923.573,291.287C921.795,295.294 920.018,299.302 918.242,303.311L918.376,303.371Z" style="fill:rgb(86,197,205);fill-rule:nonzero;"/>
                <path d="M927.976,303.37C929.509,299.481 931.043,295.592 932.577,291.705L932.509,291.678L932.525,291.749C940.456,289.936 944.736,286.706 945.301,282.038L945.228,282.029L945.298,282.049C945.506,281.321 945.6,280.612 945.6,279.919C945.595,275.572 941.952,271.861 939.988,267.431L939.854,267.491C941.839,271.95 945.458,275.658 945.453,279.919C945.453,280.599 945.361,281.294 945.157,282.009L945.155,282.02C944.604,286.593 940.406,289.794 932.493,291.606L932.455,291.615L932.441,291.651C930.907,295.538 929.372,299.427 927.839,303.316L927.976,303.37Z" style="fill:rgb(86,197,205);fill-rule:nonzero;"/>
                <path d="M937.577,303.33C937.428,302.523 937.354,301.737 937.354,300.974C937.355,296.551 939.854,292.853 944.885,289.865L944.889,289.863L944.893,289.859C948.95,286.676 952.854,283.416 956.604,280.081L956.614,280.072L956.621,280.059C957.043,279.214 957.218,278.268 957.218,277.26C957.214,272.656 953.588,266.716 953.111,262.918L952.965,262.937C953.458,266.789 957.075,272.721 957.071,277.26C957.071,278.251 956.9,279.173 956.489,279.993L956.555,280.026L956.506,279.971C952.758,283.304 948.857,286.562 944.803,289.744L944.848,289.802L944.81,289.739C939.753,292.738 937.206,296.49 937.207,300.974C937.207,301.747 937.282,302.541 937.433,303.357L937.577,303.33Z" style="fill:rgb(86,197,205);fill-rule:nonzero;"/>
                <path d="M947.177,303.355C949.251,292.148 960.725,287.428 964.872,277.763C965.714,275.798 966.001,273.715 966.001,271.587C966,266.974 964.652,262.143 964.628,257.805L964.482,257.806C964.507,262.172 965.855,267.002 965.854,271.587C965.854,273.702 965.568,275.764 964.737,277.705C960.641,287.301 949.14,292.03 947.033,303.328L947.177,303.355Z" style="fill:rgb(86,197,205);fill-rule:nonzero;"/>
                <path d="M956.776,303.347C958.294,291.468 969.094,285.782 973.356,275.397C974.398,272.853 974.729,270.113 974.729,267.312C974.728,262.419 973.721,257.339 973.721,252.784L973.722,252.551L973.575,252.55L973.574,252.784C973.575,257.358 974.582,262.438 974.582,267.312C974.582,270.101 974.253,272.821 973.22,275.341C969,285.665 958.173,291.362 956.63,303.329L956.776,303.347Z" style="fill:rgb(86,197,205);fill-rule:nonzero;"/>
                <path d="M966.375,303.331C966.325,302.652 966.3,301.975 966.3,301.301C966.3,296.216 967.729,291.274 970.59,286.47L970.527,286.433L970.566,286.494C976.043,282.953 980.201,278.874 983.035,274.256L983.039,274.251L983.041,274.246C983.875,272.209 984.175,269.98 984.175,267.659C984.174,261.642 982.162,255.002 982.163,249.501C982.163,249.294 982.166,249.09 982.172,248.887L982.026,248.883C982.02,249.087 982.017,249.293 982.017,249.501C982.018,255.035 984.029,261.672 984.028,267.659C984.028,269.967 983.729,272.177 982.905,274.19L982.973,274.218L982.91,274.179C980.089,278.775 975.949,282.839 970.487,286.371L970.472,286.38L970.464,286.395C967.591,291.218 966.153,296.188 966.153,301.301C966.153,301.979 966.178,302.659 966.229,303.342L966.375,303.332L966.375,303.331Z" style="fill:rgb(86,197,205);fill-rule:nonzero;"/>
                <path d="M975.975,303.328C975.861,302.296 975.805,301.27 975.805,300.248C975.805,295.306 977.128,290.478 979.777,285.761L979.713,285.725L979.751,285.788C985.276,282.495 989.558,278.65 992.596,274.251L992.6,274.245L992.603,274.239C993.421,272.381 993.733,270.336 993.733,268.19C993.731,261.197 990.426,253.111 990.428,246.869L990.428,246.8L990.281,246.799L990.281,246.869C990.283,253.157 993.588,261.238 993.586,268.19C993.586,270.322 993.276,272.346 992.468,274.179L992.535,274.209L992.475,274.167C989.452,278.546 985.186,282.378 979.676,285.662L979.659,285.672L979.649,285.689C976.989,290.425 975.658,295.279 975.658,300.248C975.658,301.275 975.715,302.307 975.829,303.344L975.975,303.328Z" style="fill:rgb(86,197,205);fill-rule:nonzero;"/>
                <path d="M985.574,303.326C985.398,302.042 985.311,300.765 985.311,299.495C985.311,294.669 986.577,289.943 989.113,285.313L989.049,285.277L989.083,285.342C994.653,282.391 999.117,278.88 1002.47,274.805L1002.48,274.799L1002.48,274.791C1003.26,273.185 1003.57,271.386 1003.57,269.471C1003.57,261.874 998.687,252.417 998.376,245.83L998.23,245.837C998.549,252.478 1003.43,261.929 1003.42,269.471C1003.42,271.37 1003.11,273.147 1002.35,274.727L1002.42,274.759L1002.36,274.712C999.018,278.769 994.57,282.269 989.015,285.212L988.995,285.223L988.985,285.242C986.438,289.891 985.164,294.643 985.164,299.495C985.164,300.772 985.252,302.055 985.428,303.346L985.574,303.326Z" style="fill:rgb(86,197,205);fill-rule:nonzero;"/>
                <path d="M995.173,303.326C994.969,301.926 994.867,300.533 994.867,299.148C994.868,294.349 996.091,289.641 998.541,285.02L998.476,284.985L998.507,285.052C1004.11,282.39 1008.73,279.169 1012.37,275.384L1012.38,275.376L1012.39,275.367C1013.07,274.034 1013.36,272.517 1013.36,270.881C1013.35,262.969 1006.69,252.193 1005.91,245.518L1005.76,245.535C1006.56,252.268 1013.22,263.036 1013.21,270.881C1013.21,272.501 1012.93,273.993 1012.26,275.299L1012.32,275.333L1012.27,275.282C1008.64,279.052 1004.04,282.264 998.444,284.919L998.422,284.929L998.411,284.951C995.951,289.59 994.72,294.324 994.721,299.148C994.721,300.54 994.823,301.94 995.028,303.347L995.173,303.326Z" style="fill:rgb(86,197,205);fill-rule:nonzero;"/>
                <path d="M1004.77,303.328C1004.58,301.929 1004.48,300.538 1004.48,299.155C1004.48,294.324 1005.68,289.58 1008.1,284.921L1008.03,284.887L1008.07,284.953C1013.55,282.343 1018.12,279.202 1021.78,275.53L1021.79,275.522L1021.8,275.511C1022.37,274.374 1022.61,273.064 1022.61,271.634C1022.6,263.69 1015.1,251.991 1013.66,245.516L1013.52,245.548C1014.97,252.067 1022.47,263.765 1022.46,271.634C1022.46,273.047 1022.22,274.334 1021.66,275.446L1021.73,275.479L1021.68,275.427C1018.03,279.085 1013.47,282.216 1008,284.82L1007.98,284.831L1007.97,284.853C1005.54,289.531 1004.33,294.299 1004.33,299.155C1004.33,300.545 1004.43,301.943 1004.63,303.348L1004.77,303.328Z" style="fill:rgb(86,197,205);fill-rule:nonzero;"/>
                <path d="M1014.37,303.329C1014.21,301.986 1014.13,300.649 1014.13,299.318C1014.13,294.526 1015.2,289.806 1017.34,285.153L1017.28,285.122L1017.31,285.186C1022.11,282.473 1025.98,279.309 1028.93,275.692L1028.94,275.684L1028.94,275.675C1029.43,274.558 1029.64,273.308 1029.64,271.966C1029.64,264.183 1022.59,253.226 1021.18,246.668L1021.04,246.699C1022.46,253.302 1029.5,264.256 1029.49,271.966C1029.49,273.293 1029.29,274.522 1028.81,275.616L1028.88,275.646L1028.82,275.599C1025.88,279.2 1022.02,282.353 1017.24,285.058L1017.22,285.07L1017.21,285.091C1015.06,289.762 1013.98,294.504 1013.98,299.318C1013.98,300.655 1014.06,301.998 1014.23,303.347L1014.37,303.329Z" style="fill:rgb(86,197,205);fill-rule:nonzero;"/>
                <path d="M1023.97,303.332C1023.88,302.166 1023.83,301.002 1023.83,299.841C1023.83,295.031 1024.65,290.263 1026.27,285.537L1026.2,285.513L1026.25,285.572C1030.06,282.76 1032.91,279.599 1034.8,276.087L1034.8,276.075C1035.15,275.025 1035.3,273.922 1035.3,272.781C1035.29,265.256 1028.8,256.043 1027.89,249.093L1027.74,249.112C1028.68,256.12 1035.15,265.33 1035.15,272.781C1035.15,273.91 1035,274.997 1034.66,276.03L1034.73,276.053L1034.67,276.018C1032.79,279.507 1029.96,282.652 1026.16,285.454L1026.14,285.467L1026.13,285.489C1024.5,290.229 1023.68,295.014 1023.68,299.841C1023.68,301.006 1023.73,302.174 1023.83,303.344L1023.97,303.332Z" style="fill:rgb(86,197,205);fill-rule:nonzero;"/>
                <path d="M1033.57,303.34C1033.89,293.512 1038.81,285.653 1040.56,276.543C1040.72,275.681 1040.8,274.804 1040.8,273.914C1040.79,266.953 1036.25,259.253 1034.92,252.602L1034.78,252.631C1036.12,259.318 1040.65,267.013 1040.65,273.914C1040.65,274.796 1040.57,275.664 1040.41,276.515C1038.67,285.59 1033.75,293.459 1033.43,303.335L1033.57,303.34Z" style="fill:rgb(86,197,205);fill-rule:nonzero;"/>
                <path d="M1043.17,303.342C1043.57,294.37 1047.69,286.271 1048.7,277.687C1048.76,277.186 1048.78,276.686 1048.78,276.186C1048.78,269.749 1044.24,263.412 1043.45,257.041L1043.31,257.059C1044.11,263.482 1048.64,269.816 1048.64,276.186C1048.64,276.681 1048.61,277.175 1048.55,277.67C1047.55,286.219 1043.43,294.323 1043.03,303.336L1043.17,303.342Z" style="fill:rgb(86,197,205);fill-rule:nonzero;"/>
                <path d="M1052.77,303.338C1053,294.032 1058.58,287.021 1059.23,278.428C1059.25,278.21 1059.25,277.992 1059.25,277.775C1059.25,272.104 1053.92,266.648 1052.96,261.102L1052.82,261.128C1053.8,266.737 1059.11,272.192 1059.11,277.775C1059.11,277.989 1059.1,278.203 1059.08,278.417C1058.45,286.951 1052.87,293.969 1052.62,303.334L1052.77,303.338Z" style="fill:rgb(86,197,205);fill-rule:nonzero;"/>
                <path d="M1062.35,303.297C1061.26,300.794 1060.72,298.355 1060.72,295.977C1060.72,292.522 1061.87,289.196 1064.17,285.99L1064.17,285.986L1064.18,285.981C1065.66,283.121 1067.47,280.348 1069.62,277.663L1069.63,277.644L1069.63,277.62L1069.64,277.434C1069.64,274.862 1067.92,272.589 1066.09,270.331C1064.24,268.073 1062.27,265.824 1061.7,263.332L1061.55,263.365C1062.14,265.91 1064.13,268.167 1065.97,270.424C1067.81,272.68 1069.49,274.932 1069.49,277.434L1069.49,277.615L1069.56,277.617L1069.5,277.571C1067.35,280.263 1065.54,283.045 1064.05,285.913L1064.11,285.947L1064.05,285.904C1061.73,289.13 1060.57,292.489 1060.57,295.977C1060.57,298.377 1061.12,300.837 1062.22,303.356L1062.35,303.297Z" style="fill:rgb(86,197,205);fill-rule:nonzero;"/>
                <path d="M1071.95,303.289C1070.7,300.566 1070.08,297.92 1070.08,295.349C1070.08,291.648 1071.37,288.1 1073.95,284.698L1073.96,284.694L1073.96,284.689C1075.63,281.721 1077.6,278.833 1079.86,276.025L1079.88,276.001L1079.87,275.97C1079.53,273.432 1077.44,271.758 1075.28,270.089C1073.11,268.42 1070.88,266.753 1070.17,264.268L1070.03,264.308C1070.76,266.858 1073.03,268.537 1075.19,270.205C1077.35,271.874 1079.4,273.529 1079.73,275.989L1079.8,275.979L1079.74,275.933C1077.48,278.747 1075.51,281.642 1073.83,284.617L1073.89,284.653L1073.84,284.609C1071.24,288.031 1069.93,291.613 1069.93,295.349C1069.93,297.944 1070.56,300.611 1071.82,303.35L1071.95,303.289Z" style="fill:rgb(86,197,205);fill-rule:nonzero;"/>
                <path d="M1081.56,303.316C1081.36,301.876 1081.25,300.447 1081.25,299.029C1081.25,294.244 1082.42,289.584 1084.77,285.046L1084.77,285.041C1086.31,281.396 1087.9,277.761 1089.55,274.136L1089.56,274.105L1089.55,274.074C1088.44,271.7 1086.13,270.549 1083.94,269.362C1081.74,268.174 1079.66,266.954 1078.95,264.47L1078.81,264.51C1079.54,267.062 1081.67,268.304 1083.87,269.491C1086.07,270.68 1088.34,271.82 1089.42,274.136L1089.48,274.105L1089.41,274.075C1087.77,277.702 1086.17,281.338 1084.63,284.984L1084.7,285.013L1084.64,284.979C1082.28,289.535 1081.11,294.22 1081.11,299.029C1081.11,300.454 1081.21,301.89 1081.42,303.337L1081.56,303.316Z" style="fill:rgb(86,197,205);fill-rule:nonzero;"/>
                <path d="M1091.16,303.357C1091.92,298.886 1099.27,282.539 1099.27,275.236C1099.27,274.198 1099.13,273.338 1098.78,272.713C1097.54,270.471 1095.25,269.597 1093.11,268.67C1090.96,267.741 1088.97,266.767 1088.26,264.354L1088.12,264.396C1088.85,266.879 1090.9,267.878 1093.05,268.805C1095.2,269.734 1097.44,270.599 1098.65,272.785C1098.98,273.373 1099.13,274.211 1099.13,275.236C1099.13,282.476 1091.78,298.82 1091.02,303.332L1091.16,303.357Z" style="fill:rgb(86,197,205);fill-rule:nonzero;"/>
                <path d="M1100.76,303.354C1100.88,300.537 1103.09,295.214 1105.27,289.738C1107.45,284.258 1109.61,278.622 1109.61,275.109C1109.61,274.303 1109.5,273.606 1109.24,273.047C1108.05,270.475 1105.48,269.42 1102.93,268.337C1100.37,267.253 1097.83,266.141 1096.64,263.495L1096.5,263.556C1097.73,266.264 1100.32,267.388 1102.87,268.472C1105.43,269.556 1107.95,270.601 1109.1,273.109C1109.35,273.64 1109.46,274.316 1109.46,275.109C1109.46,278.568 1107.32,284.208 1105.14,289.684C1102.96,295.163 1100.74,300.475 1100.61,303.347L1100.76,303.354Z" style="fill:rgb(86,197,205);fill-rule:nonzero;"/>
                <path d="M1110.36,303.33C1109.87,301.701 1109.62,300.098 1109.62,298.52C1109.62,295.07 1110.79,291.74 1113.13,288.523L1113.13,288.512C1115.46,283.858 1117.93,279.234 1120.54,274.64L1120.55,274.615L1120.54,274.587C1119.83,271.531 1116.56,269.823 1113.05,268.144C1109.54,266.467 1105.77,264.817 1104.04,261.953L1103.91,262.029C1105.69,264.951 1109.48,266.598 1112.99,268.276C1116.5,269.952 1119.72,271.658 1120.4,274.62L1120.47,274.604L1120.41,274.567C1117.8,279.164 1115.33,283.79 1113,288.447L1113.07,288.479L1113.01,288.436C1110.66,291.673 1109.48,295.037 1109.48,298.52C1109.48,300.113 1109.72,301.731 1110.22,303.373L1110.36,303.33Z" style="fill:rgb(86,197,205);fill-rule:nonzero;"/>
                <path d="M1119.96,303.322C1119.34,301.644 1119.03,300.01 1119.03,298.418C1119.03,295.008 1120.45,291.788 1123.3,288.75L1123.31,288.745L1123.31,288.74C1125.95,284.618 1128.87,280.58 1132.08,276.626L1132.09,276.606L1132.09,276.58C1132.06,273.62 1127.86,270.609 1123.11,267.731C1118.35,264.859 1113.02,262.141 1110.7,259.892L1110.6,259.998C1112.95,262.275 1118.28,264.986 1123.03,267.856C1127.79,270.72 1131.94,273.762 1131.95,276.581L1132.02,276.58L1131.96,276.534C1128.75,280.492 1125.83,284.534 1123.19,288.661L1123.25,288.7L1123.19,288.65C1120.32,291.706 1118.88,294.965 1118.88,298.418C1118.88,300.029 1119.19,301.681 1119.82,303.373L1119.96,303.322Z" style="fill:rgb(86,197,205);fill-rule:nonzero;"/>
                <path d="M1129.56,303.328C1129.3,302.04 1129.16,300.769 1129.16,299.515C1129.16,294.925 1130.95,290.55 1134.53,286.382L1134.47,286.334L1134.5,286.403C1139.5,284.665 1142.04,282.282 1142.04,279.243C1142.04,278.91 1142.01,278.571 1141.95,278.224L1141.88,278.236L1141.95,278.237L1141.95,278.2C1141.94,274.509 1137.18,270.951 1131.69,267.487C1126.19,264.028 1119.93,260.677 1116.89,257.505L1116.78,257.607C1119.85,260.809 1126.12,264.154 1131.61,267.612C1137.11,271.064 1141.82,274.642 1141.8,278.2L1141.8,278.242L1141.81,278.249C1141.87,278.588 1141.89,278.919 1141.89,279.243C1141.9,282.184 1139.44,284.529 1134.45,286.265L1134.43,286.271L1134.42,286.286C1130.82,290.474 1129.02,294.886 1129.02,299.515C1129.02,300.78 1129.15,302.061 1129.42,303.358L1129.56,303.328Z" style="fill:rgb(86,197,205);fill-rule:nonzero;"/>
                <path d="M1139.17,303.324C1138.9,302.046 1138.77,300.787 1138.77,299.544C1138.77,294.877 1140.63,290.451 1144.36,286.256L1144.31,286.207L1144.33,286.278C1149.6,284.936 1152.28,282.869 1152.28,280.045C1152.28,279.608 1152.22,279.155 1152.09,278.687L1152.02,278.706L1152.09,278.713C1152.1,278.601 1152.11,278.489 1152.11,278.376C1152.09,274.602 1146.36,270.372 1139.84,266.243C1133.33,262.123 1126.01,258.124 1122.83,254.947L1122.73,255.051C1125.94,258.257 1133.25,262.246 1139.77,266.367C1146.28,270.48 1151.98,274.748 1151.96,278.376C1151.96,278.484 1151.96,278.592 1151.95,278.699L1151.95,278.725C1152.08,279.183 1152.14,279.623 1152.14,280.045C1152.14,282.754 1149.55,284.794 1144.29,286.136L1144.27,286.141L1144.25,286.158C1140.5,290.372 1138.62,294.837 1138.62,299.544C1138.62,300.797 1138.76,302.067 1139.02,303.354L1139.17,303.324Z" style="fill:rgb(86,197,205);fill-rule:nonzero;"/>
                <path d="M1148.77,303.331C1148.65,302.313 1148.6,301.299 1148.6,300.29C1148.6,295.939 1149.66,291.671 1151.78,287.482L1151.71,287.449L1151.75,287.51C1156.05,284.615 1159.49,281.355 1162.07,277.73L1162.08,277.712L1162.08,277.691L1162.09,277.542C1162.08,275.564 1160.39,273.439 1157.78,271.24C1149.93,264.653 1133.68,257.403 1128.98,252.525L1128.87,252.627C1132.04,255.909 1140.31,260.212 1147.79,264.671C1151.53,266.899 1155.08,269.165 1157.68,271.353C1160.29,273.54 1161.94,275.653 1161.94,277.542L1161.94,277.684L1162.01,277.688L1161.95,277.645C1159.38,281.254 1155.96,284.502 1151.67,287.388L1151.66,287.399L1151.65,287.416C1149.52,291.623 1148.45,295.915 1148.45,300.29C1148.45,301.305 1148.51,302.324 1148.62,303.347L1148.77,303.331Z" style="fill:rgb(86,197,205);fill-rule:nonzero;"/>
                <path d="M1158.37,303.332C1158.29,302.323 1158.25,301.316 1158.25,300.311C1158.25,295.749 1159.08,291.235 1160.77,286.768L1160.7,286.742L1160.75,286.791C1164.19,282.971 1166.92,278.959 1168.96,274.752L1168.97,274.73L1168.97,274.707C1168.17,270.279 1161.71,266.11 1154.55,262.094C1147.38,258.085 1139.48,254.241 1135.82,250.573L1135.72,250.676C1139.42,254.376 1147.31,258.212 1154.47,262.222C1161.64,266.227 1168.07,270.421 1168.82,274.733L1168.89,274.72L1168.83,274.688C1166.8,278.881 1164.07,282.882 1160.64,286.693L1160.63,286.703L1160.63,286.716C1158.94,291.199 1158.1,295.73 1158.1,300.311C1158.1,301.32 1158.14,302.331 1158.22,303.344L1158.37,303.332Z" style="fill:rgb(86,197,205);fill-rule:nonzero;"/>
                <path d="M1167.97,303.335C1167.93,302.424 1167.91,301.515 1167.91,300.606C1167.91,295.672 1168.46,290.757 1169.57,285.863L1169.49,285.847L1169.56,285.88C1172,281.016 1173.85,276.062 1175.12,271.021L1175.12,270.997L1175.11,270.974C1173.18,266.402 1167.24,262.901 1160.79,259.548C1154.35,256.199 1147.38,253.003 1143.37,249.103L1143.27,249.208C1147.31,253.137 1154.28,256.33 1160.73,259.679C1167.17,263.025 1173.08,266.532 1174.98,271.031L1175.05,271.003L1174.97,270.985C1173.71,276.016 1171.86,280.959 1169.43,285.814L1169.42,285.822L1169.42,285.831C1168.32,290.735 1167.76,295.661 1167.76,300.606C1167.76,301.517 1167.78,302.428 1167.82,303.341L1167.97,303.335Z" style="fill:rgb(86,197,205);fill-rule:nonzero;"/>
                <path d="M1177.57,303.339C1177.69,294.889 1182.5,283.339 1182.5,273.949C1182.5,271.656 1182.22,269.491 1181.5,267.53C1179.81,262.891 1173.89,260.202 1167.63,257.578C1161.36,254.959 1154.74,252.408 1151.63,248.134L1151.51,248.22C1154.67,252.548 1161.31,255.092 1167.57,257.714C1173.83,260.332 1179.71,263.031 1181.36,267.58C1182.07,269.52 1182.36,271.668 1182.36,273.949C1182.36,283.295 1177.55,294.841 1177.42,303.337L1177.57,303.339Z" style="fill:rgb(86,197,205);fill-rule:nonzero;"/>
                <path d="M1187.17,303.34C1187.27,295.295 1190.8,284.182 1190.8,274.742C1190.8,271.323 1190.34,268.121 1189.08,265.362C1187.02,260.886 1181.39,258.585 1175.52,256.33C1169.66,254.077 1163.56,251.869 1160.57,247.651L1160.45,247.736C1163.49,252.009 1169.61,254.212 1175.47,256.468C1181.34,258.718 1186.93,261.024 1188.94,265.423C1190.19,268.155 1190.66,271.336 1190.66,274.742C1190.66,284.149 1187.13,295.257 1187.02,303.338L1187.17,303.34Z" style="fill:rgb(86,197,205);fill-rule:nonzero;"/>
                <path d="M1196.77,303.339C1196.87,295.51 1199.92,284.922 1199.92,275.705C1199.92,271.979 1199.42,268.474 1198.02,265.465C1196,261.12 1190.56,258.745 1184.89,256.417C1179.22,254.092 1173.32,251.815 1170.36,247.74L1170.24,247.826C1173.24,251.953 1179.17,254.226 1184.83,256.554C1190.5,258.878 1195.91,261.257 1197.89,265.527C1199.27,268.508 1199.77,271.991 1199.77,275.705C1199.77,284.892 1196.72,295.476 1196.62,303.337L1196.77,303.339Z" style="fill:rgb(86,197,205);fill-rule:nonzero;"/>
                <path d="M1206.37,303.338C1206.46,296.872 1207.71,289.172 1207.71,281.787C1207.71,276.838 1207.15,272.029 1205.3,267.826C1203.45,263.621 1198.77,260.879 1193.95,258.164C1189.13,255.451 1184.17,252.765 1181.73,248.724L1181.61,248.8C1184.08,252.891 1189.06,255.578 1193.88,258.292C1198.7,261.004 1203.35,263.743 1205.17,267.885C1207.01,272.059 1207.57,276.849 1207.57,281.787C1207.57,289.156 1206.32,296.854 1206.22,303.336L1206.37,303.338Z" style="fill:rgb(86,197,205);fill-rule:nonzero;"/>
                <path d="M1215.97,303.338C1216.02,300.589 1216.11,297.7 1216.11,294.755C1216.11,286.835 1215.45,278.506 1211.58,271.397C1207.42,263.745 1197.54,258.379 1194.54,250.526L1194.41,250.578C1197.44,258.503 1207.33,263.865 1211.45,271.467C1215.3,278.539 1215.96,286.842 1215.96,294.755C1215.96,297.697 1215.87,300.585 1215.82,303.335L1215.97,303.338Z" style="fill:rgb(86,197,205);fill-rule:nonzero;"/>
                <path d="M1225.56,303.34C1225.57,302.978 1225.58,302.617 1225.58,302.257C1225.58,284.738 1214.24,269.815 1208.5,252.991L1208.36,253.038C1214.11,269.892 1225.44,284.805 1225.43,302.257C1225.43,302.615 1225.43,302.975 1225.42,303.336L1225.56,303.34Z" style="fill:rgb(86,197,205);fill-rule:nonzero;"/>
                <path d="M1235.16,303.341C1235.18,302.969 1235.18,302.598 1235.18,302.227C1235.18,286.591 1224.22,272.239 1223.33,256.009L1223.18,256.017C1224.08,272.307 1235.04,286.66 1235.04,302.227C1235.04,302.596 1235.03,302.966 1235.02,303.336L1235.16,303.341Z" style="fill:rgb(86,197,205);fill-rule:nonzero;"/>
                <path d="M1244.76,303.35C1244.92,302.05 1245,300.866 1245,299.773C1244.99,290.79 1239.92,288.067 1236.81,278.469C1236.4,277.187 1236.23,275.767 1236.23,274.272C1236.23,269.294 1238.05,263.497 1238.43,259.215L1238.28,259.203C1237.91,263.459 1236.09,269.262 1236.09,274.272C1236.09,275.777 1236.25,277.213 1236.67,278.514C1239.8,288.161 1244.86,290.864 1244.85,299.773C1244.85,300.859 1244.78,302.037 1244.61,303.332L1244.76,303.35Z" style="fill:rgb(86,197,205);fill-rule:nonzero;"/>
                <path d="M1254.36,303.364C1255.51,300.126 1255.97,297.649 1255.97,295.593C1255.97,292.218 1254.72,289.987 1253.26,287.41C1251.79,284.832 1250.1,281.903 1249.18,277.104C1249.09,276.623 1249.05,276.126 1249.05,275.615C1249.05,271.275 1252.07,266.01 1252.73,261.949L1252.58,261.926C1251.93,265.945 1248.91,271.214 1248.9,275.615C1248.9,276.134 1248.95,276.641 1249.04,277.132C1249.96,281.953 1251.66,284.906 1253.13,287.483C1254.6,290.062 1255.83,292.257 1255.83,295.593C1255.83,297.627 1255.37,300.087 1254.22,303.315L1254.36,303.364Z" style="fill:rgb(86,197,205);fill-rule:nonzero;"/>
                <path d="M1263.96,303.375C1266.71,298.523 1267.7,295.358 1267.7,292.856C1267.7,290.091 1266.48,288.155 1265.13,285.68C1263.77,283.205 1262.26,280.184 1261.63,275.228C1261.6,275.016 1261.59,274.804 1261.59,274.592C1261.58,271.016 1265.27,267.501 1265.57,263.826L1265.42,263.815C1265.15,267.408 1261.45,270.923 1261.44,274.592C1261.44,274.81 1261.45,275.028 1261.48,275.247C1262.11,280.224 1263.64,283.272 1265,285.751C1266.36,288.232 1267.55,290.138 1267.55,292.856C1267.55,295.317 1266.57,298.46 1263.83,303.303L1263.96,303.375Z" style="fill:rgb(86,197,205);fill-rule:nonzero;"/>
                <path d="M1273.55,303.379C1277.06,297.977 1278.28,294.645 1278.28,292.047C1278.28,289.393 1277.01,287.531 1275.65,285.057C1274.3,282.58 1272.85,279.483 1272.46,274.335C1272.45,274.213 1272.45,274.091 1272.45,273.969C1272.44,270.848 1275.35,267.56 1276.31,264.51L1276.17,264.466C1275.24,267.473 1272.31,270.762 1272.3,273.969C1272.3,274.095 1272.31,274.221 1272.31,274.346C1272.7,279.517 1274.16,282.644 1275.53,285.127C1276.89,287.612 1278.14,289.445 1278.14,292.047C1278.14,294.596 1276.94,297.907 1273.43,303.299L1273.55,303.379Z" style="fill:rgb(86,197,205);fill-rule:nonzero;"/>
                <path d="M1283.16,303.376C1286.1,298.22 1287.11,294.92 1287.11,292.214C1287.11,287.148 1283.57,284.243 1282.45,275.186C1282.42,274.928 1282.4,274.669 1282.4,274.409C1282.39,270.945 1285.08,267.4 1285.27,263.881L1285.12,263.873C1284.95,267.327 1282.26,270.874 1282.25,274.409C1282.25,274.674 1282.27,274.939 1282.3,275.204C1283.43,284.299 1286.97,287.233 1286.97,292.214C1286.97,294.881 1285.96,298.157 1283.03,303.303L1283.16,303.376Z" style="fill:rgb(86,197,205);fill-rule:nonzero;"/>
                <path d="M1292.76,303.367C1294.51,298.817 1295.08,294.345 1295.08,289.89C1295.08,281.682 1293.15,273.53 1293.16,265.024C1293.16,264.132 1293.18,263.237 1293.22,262.337L1293.08,262.329C1293.03,263.232 1293.01,264.13 1293.01,265.024C1293.01,273.552 1294.93,281.705 1294.93,289.89C1294.93,294.333 1294.36,298.784 1292.62,303.314L1292.76,303.367Z" style="fill:rgb(86,197,205);fill-rule:nonzero;"/>
                <path d="M1302.36,303.354C1302.95,299.719 1303.19,296.159 1303.19,292.64C1303.18,281.759 1300.98,271.264 1300.49,260.141L1300.35,260.149C1300.83,271.286 1303.04,281.779 1303.04,292.64C1303.04,296.153 1302.81,299.705 1302.21,303.33L1302.36,303.354Z" style="fill:rgb(86,197,205);fill-rule:nonzero;"/>
                <path d="M1311.96,303.341C1312,296.752 1312.71,290.021 1312.71,283.373C1312.71,281.599 1312.66,279.831 1312.53,278.073C1312.02,271.07 1308.08,264.566 1307.39,257.593L1307.24,257.607C1307.94,264.625 1311.88,271.129 1312.38,278.083C1312.51,279.837 1312.56,281.602 1312.56,283.373C1312.56,290.011 1311.85,296.742 1311.81,303.34L1311.96,303.341Z" style="fill:rgb(86,197,205);fill-rule:nonzero;"/>
                <path d="M1321.56,303.334C1321.49,301.886 1321.47,300.43 1321.47,298.967C1321.47,294.322 1321.73,289.62 1321.73,284.952C1321.73,281.892 1321.61,278.846 1321.24,275.842C1320.34,268.616 1315.3,262.168 1314.21,254.975L1314.06,254.997C1315.17,262.242 1320.21,268.689 1321.1,275.86C1321.47,278.856 1321.58,281.895 1321.58,284.952C1321.58,289.615 1321.32,294.317 1321.32,298.967C1321.32,300.431 1321.34,301.89 1321.41,303.341L1321.56,303.334Z" style="fill:rgb(86,197,205);fill-rule:nonzero;"/>
                <path d="M1331.16,303.332C1330.49,293.175 1331.56,282.354 1329.48,272.262C1328.06,265.374 1322.54,259.466 1321.26,252.579L1321.12,252.606C1322.41,259.55 1327.93,265.458 1329.34,272.292C1331.41,282.353 1330.34,293.168 1331.01,303.342L1331.16,303.332Z" style="fill:rgb(86,197,205);fill-rule:nonzero;"/>
                <path d="M1340.76,303.33C1339.91,292.165 1341.43,279.234 1337.94,268.264C1335.96,262.076 1329.83,256.942 1328.86,250.697L1328.71,250.719C1329.71,257.041 1335.85,262.176 1337.8,268.308C1341.28,279.235 1339.76,292.155 1340.61,303.341L1340.76,303.33Z" style="fill:rgb(86,197,205);fill-rule:nonzero;"/>
                <path d="M1350.36,303.332C1349.38,291.451 1350.91,277.292 1346.64,265.697C1344.53,260.013 1338.05,255.391 1337.3,249.61L1337.15,249.629C1337.93,255.502 1344.43,260.121 1346.5,265.748C1350.76,277.296 1349.24,291.443 1350.21,303.344L1350.36,303.332Z" style="fill:rgb(86,197,205);fill-rule:nonzero;"/>
                <path d="M1359.99,303.333C1359,291.14 1359.67,277.521 1355.69,265.544C1353.81,259.86 1348.68,255.149 1347.12,249.508L1346.98,249.547C1348.56,255.244 1353.69,259.955 1355.55,265.59C1359.52,277.531 1358.85,291.139 1359.84,303.345L1359.99,303.333Z" style="fill:rgb(86,197,205);fill-rule:nonzero;"/>
                <path d="M1369.81,303.325C1368.71,286.351 1366.63,266.624 1359.51,250.036L1359.38,250.094C1366.48,266.653 1368.56,286.366 1369.67,303.335L1369.81,303.325Z" style="fill:rgb(86,197,205);fill-rule:nonzero;"/>
                <path d="M1379.82,303.329C1380.16,301.197 1380.33,299.077 1380.33,296.97C1380.33,290.986 1378.94,285.106 1376.17,279.331L1376.16,279.313L1376.15,279.301C1372.1,276.57 1370.1,273.471 1370.1,269.996L1370.1,269.744C1370.04,269.294 1370.01,268.849 1370.01,268.407C1370,263.33 1373.96,258.731 1373.96,253.572C1373.96,252.784 1373.87,251.983 1373.66,251.166L1373.51,251.203C1373.73,252.007 1373.82,252.795 1373.82,253.572C1373.82,258.655 1369.87,263.255 1369.86,268.407C1369.86,268.855 1369.89,269.308 1369.95,269.765L1370.03,269.755L1369.95,269.753L1369.95,269.996C1369.95,273.532 1372,276.679 1376.06,279.423L1376.1,279.362L1376.04,279.394C1378.8,285.152 1380.19,291.009 1380.19,296.97C1380.19,299.069 1380.02,301.181 1379.67,303.306L1379.82,303.329Z" style="fill:rgb(86,197,205);fill-rule:nonzero;"/>
                <path d="M1389.94,303.336C1391.21,300.198 1391.84,297.113 1391.84,294.082C1391.84,289.196 1390.18,284.453 1386.87,279.859L1386.86,279.839L1386.83,279.832C1381.38,278.221 1378.69,275.833 1378.69,272.682C1378.69,272.49 1378.7,272.295 1378.72,272.097L1378.72,272.075C1378.64,271.655 1378.6,271.245 1378.6,270.841C1378.59,267.706 1381.03,264.996 1383.49,262.233C1385.94,259.47 1388.41,256.653 1388.41,253.258L1388.41,252.917L1388.26,252.924C1388.27,253.036 1388.27,253.147 1388.27,253.258C1388.27,256.576 1385.83,259.373 1383.38,262.136C1380.93,264.898 1378.45,267.625 1378.45,270.841C1378.45,271.254 1378.49,271.675 1378.58,272.104L1378.65,272.09L1378.58,272.082C1378.56,272.285 1378.55,272.485 1378.55,272.682C1378.55,275.935 1381.32,278.361 1386.79,279.973L1386.81,279.902L1386.75,279.945C1390.05,284.519 1391.69,289.229 1391.69,294.082C1391.69,297.092 1391.07,300.158 1389.8,303.281L1389.94,303.336Z" style="fill:rgb(86,197,205);fill-rule:nonzero;"/>
                <path d="M1400.11,303.352C1402.76,299.595 1404.08,295.9 1404.08,292.272C1404.08,288.53 1402.67,284.863 1399.86,281.278L1399.84,281.256L1399.81,281.251C1396.71,280.652 1394.38,279.788 1392.84,278.669C1391.3,277.548 1390.54,276.181 1390.54,274.548C1390.54,274.352 1390.55,274.151 1390.57,273.947L1390.57,273.923C1390.47,273.506 1390.43,273.102 1390.43,272.709C1390.42,269.475 1393.45,266.97 1396.51,264.429C1399.56,261.887 1402.64,259.306 1402.65,255.846C1402.65,255.667 1402.64,255.486 1402.62,255.303L1402.48,255.316C1402.49,255.495 1402.5,255.671 1402.5,255.846C1402.5,259.208 1399.48,261.774 1396.42,264.316C1393.37,266.858 1390.29,269.373 1390.28,272.709C1390.28,273.113 1390.33,273.528 1390.42,273.956L1390.5,273.939L1390.42,273.931C1390.4,274.141 1390.39,274.346 1390.39,274.548C1390.39,276.23 1391.18,277.65 1392.75,278.788C1394.33,279.927 1396.67,280.793 1399.79,281.395L1399.8,281.323L1399.74,281.369C1402.54,284.936 1403.94,288.568 1403.94,292.272C1403.94,295.864 1402.63,299.528 1399.99,303.267L1400.11,303.352Z" style="fill:rgb(86,197,205);fill-rule:nonzero;"/>
                <path d="M1413.53,303.344C1415.8,299.928 1416.94,296.565 1416.94,293.258C1416.94,289.645 1415.57,286.103 1412.86,282.64L1412.85,282.622L1412.82,282.615C1407,280.896 1404.12,278.243 1404.12,274.656L1404.12,274.638C1403.97,274.064 1403.9,273.515 1403.9,272.987C1403.9,270.015 1406.06,267.683 1408.47,265.352C1410.87,263.021 1413.52,260.698 1414.43,257.71L1414.29,257.667C1413.4,260.599 1410.78,262.914 1408.37,265.247C1405.96,267.579 1403.76,269.937 1403.76,272.987C1403.76,273.527 1403.83,274.089 1403.97,274.674L1404.05,274.656L1403.97,274.656C1403.98,278.339 1406.94,281.037 1412.78,282.756L1412.8,282.686L1412.75,282.731C1415.44,286.176 1416.79,289.683 1416.79,293.258C1416.79,296.53 1415.67,299.864 1413.41,303.263L1413.53,303.344Z" style="fill:rgb(86,197,205);fill-rule:nonzero;"/>
                <path d="M1433.11,303.291L1433.11,302.38C1433.11,289.157 1428.1,286.711 1422.42,275.448C1421.63,273.866 1421.35,272.366 1421.35,270.902C1421.35,267.536 1422.82,264.36 1422.83,260.908C1422.83,260.293 1422.78,259.669 1422.67,259.034L1422.52,259.06C1422.63,259.685 1422.68,260.3 1422.68,260.908C1422.68,264.318 1421.2,267.493 1421.2,270.902C1421.2,272.384 1421.48,273.911 1422.29,275.514C1428,286.817 1432.97,289.206 1432.97,302.38C1432.97,302.677 1432.96,302.98 1432.96,303.289L1433.11,303.291Z" style="fill:rgb(86,197,205);fill-rule:nonzero;"/>
                <path d="M1453.08,303.259C1450.02,289.366 1442.9,271.341 1428.61,259.854L1428.51,259.968C1442.77,271.421 1449.89,289.417 1452.94,303.29L1453.08,303.259Z" style="fill:rgb(86,197,205);fill-rule:nonzero;"/>
                <path d="M1467.55,303.238C1461.74,285.709 1456.44,272.174 1433.62,260.779L1433.56,260.909C1456.34,272.293 1461.59,285.755 1467.41,303.284L1467.55,303.238Z" style="fill:rgb(86,197,205);fill-rule:nonzero;"/>
                <path d="M753.281,272.053C774.626,265.675 808.921,255.46 837.532,255.46C846.425,255.46 854.768,256.447 862.001,258.84C872.548,262.326 877.668,269.809 888.6,272.976C892.977,274.242 897.567,274.759 902.223,274.759C913.354,274.759 924.861,271.806 934.748,269.072C958.498,262.5 979.555,245.092 1006.62,245.095C1010.8,245.095 1015.12,245.509 1019.61,246.442C1029.21,248.43 1036.49,254.071 1044.44,257.699C1055.29,262.645 1066.19,264.692 1078.93,264.692C1080.44,264.692 1081.98,264.663 1083.55,264.607C1105.44,263.818 1118,254.876 1137.33,250.393C1145.82,248.424 1154.46,247.619 1163.15,247.619C1190.59,247.618 1218.55,255.64 1243.92,260.44C1254.2,262.386 1265.16,264.543 1276.09,264.544C1279.13,264.544 1282.17,264.377 1285.19,263.993C1298.97,262.235 1308.76,255.831 1321.42,252.644C1330.88,250.265 1340.85,249.313 1351.05,249.313C1378.86,249.313 1408.37,256.399 1433.59,260.929L1433.62,260.784C1408.4,256.255 1378.89,249.166 1351.05,249.166C1340.84,249.166 1330.85,250.119 1321.39,252.502C1308.69,255.699 1298.92,262.097 1285.17,263.847C1282.16,264.23 1279.13,264.397 1276.09,264.397C1265.18,264.397 1254.23,262.243 1243.95,260.296C1218.59,255.498 1190.61,247.472 1163.15,247.472C1154.45,247.472 1145.8,248.278 1137.3,250.25C1117.93,254.745 1105.39,263.676 1083.55,264.46C1081.98,264.516 1080.44,264.545 1078.93,264.545C1066.2,264.545 1055.33,262.501 1044.5,257.565C1036.57,253.95 1029.28,248.297 1019.64,246.298C1015.14,245.363 1010.81,244.948 1006.62,244.948C979.489,244.951 958.417,262.377 934.709,268.93C924.825,271.664 913.328,274.612 902.223,274.612C897.578,274.612 893.002,274.096 888.641,272.835C877.762,269.691 872.644,262.211 862.047,258.701C854.793,256.301 846.436,255.313 837.532,255.313C808.889,255.314 774.586,265.534 753.239,271.912L753.281,272.053Z" style="fill:rgb(86,197,205);fill-rule:nonzero;"/>
                <path d="M749.703,272.926C772.181,267.531 806.507,257.475 835.266,257.475C844.196,257.475 852.589,258.445 859.922,260.823C871.057,264.431 878.12,271.558 889.705,274.635C894.288,275.852 898.966,276.352 903.661,276.352C914.465,276.352 925.361,273.701 935.417,271.008C959.187,264.641 979.881,248.899 1006.37,248.902C1010.82,248.902 1015.44,249.345 1020.25,250.351C1029.59,252.299 1036.88,257.552 1044.87,260.925C1055.52,265.425 1066.53,267.271 1078.79,267.271C1080.61,267.271 1082.46,267.23 1084.34,267.151C1105.7,266.254 1120.96,258.912 1140.07,254.246C1148.74,252.13 1157.34,251.275 1165.89,251.275C1192.13,251.275 1217.87,259.328 1243.49,263.661C1253.8,265.406 1264.67,267.094 1275.48,267.095C1278.62,267.095 1281.74,266.953 1284.85,266.63C1299.3,265.126 1309.09,259.388 1322.15,256.033C1332.6,253.342 1343.6,252.302 1354.83,252.302C1381.72,252.302 1409.91,258.27 1435.01,261.832L1435.03,261.688C1409.94,258.126 1381.74,252.155 1354.83,252.155C1343.6,252.155 1332.58,253.196 1322.11,255.89C1309.03,259.254 1299.25,264.985 1284.84,266.484C1281.73,266.806 1278.61,266.948 1275.48,266.948C1264.69,266.948 1253.82,265.261 1243.51,263.516C1217.91,259.186 1192.16,251.129 1165.89,251.129C1157.33,251.129 1148.72,251.984 1140.04,254.103C1120.9,258.776 1105.66,266.109 1084.34,267.005C1082.46,267.083 1080.61,267.124 1078.79,267.124C1066.54,267.124 1055.56,265.281 1044.92,260.791C1036.96,257.429 1029.66,252.164 1020.28,250.207C1015.46,249.199 1010.83,248.755 1006.37,248.755C979.82,248.757 959.111,264.515 935.379,270.867C925.325,273.559 914.441,276.206 903.661,276.206C898.976,276.206 894.312,275.706 889.743,274.493C878.201,271.432 871.141,264.309 859.967,260.684C852.614,258.3 844.207,257.33 835.266,257.33C806.475,257.33 772.143,267.39 749.669,272.783L749.703,272.926Z" style="fill:rgb(86,197,205);fill-rule:nonzero;"/>
                <path d="M745.845,274.007C770.443,269.551 803.075,260.263 831.676,260.264C840.116,260.264 848.205,261.072 855.632,263.051C868.445,266.465 878.414,273.185 891.582,276.047C896.573,277.132 901.496,277.592 906.375,277.592C916.69,277.591 926.808,275.538 936.967,272.995C961.277,266.908 980.833,253.817 1006.77,253.819C1011.51,253.819 1016.47,254.257 1021.71,255.257C1030.71,256.972 1037.85,261.387 1045.91,264.257C1055.64,267.72 1065.01,268.682 1075.12,268.682C1078.73,268.682 1082.43,268.56 1086.28,268.385C1108.34,267.381 1126.23,263.713 1146.13,258.208C1154.91,255.78 1163.22,254.824 1171.28,254.824C1195.32,254.823 1217.2,263.32 1243.06,266.571C1252.66,267.778 1261.38,268.384 1269.67,268.384C1288.2,268.384 1304.55,265.353 1323.71,259.241C1333.77,256.031 1344.64,254.864 1355.89,254.864C1382.9,254.864 1412.1,261.589 1437.51,262.881L1437.51,262.734C1412.13,261.445 1382.93,254.718 1355.89,254.717C1344.63,254.717 1333.74,255.885 1323.66,259.102C1304.51,265.21 1288.18,268.237 1269.67,268.237C1261.39,268.237 1252.67,267.631 1243.08,266.425C1217.24,263.179 1195.36,254.678 1171.28,254.677C1163.21,254.677 1154.89,255.634 1146.09,258.067C1126.19,263.57 1108.32,267.234 1086.27,268.238C1082.43,268.413 1078.73,268.535 1075.12,268.535C1065.01,268.535 1055.67,267.574 1045.96,264.118C1037.92,261.257 1030.77,256.835 1021.74,255.112C1016.49,254.111 1011.52,253.672 1006.77,253.672C980.78,253.674 961.209,266.778 936.932,272.853C926.776,275.394 916.67,277.445 906.375,277.445C901.505,277.445 896.594,276.986 891.613,275.904C878.479,273.051 868.512,266.334 855.67,262.91C848.227,260.926 840.126,260.117 831.676,260.117C803.045,260.117 770.406,269.409 745.819,273.862L745.845,274.007Z" style="fill:rgb(86,197,205);fill-rule:nonzero;"/>
                <path d="M742.122,275.413C761.01,273.084 780.114,270.996 798.482,267.257C809.911,264.932 819.375,263.192 829.556,263.192C835.398,263.192 841.478,263.765 848.303,265.13C873.183,270.103 890.848,278.174 913.832,278.175C920.506,278.175 927.628,277.494 935.503,275.859C961.942,270.369 980.436,259.511 1007.26,259.512C1011.47,259.512 1015.89,259.78 1020.57,260.378C1032.64,261.916 1041.71,266.95 1053.34,269.225C1057.71,270.079 1062.02,270.378 1066.33,270.378C1073.8,270.378 1081.24,269.478 1088.84,269.012C1114.6,267.431 1133.03,268.299 1156.71,261.123C1164.44,258.783 1171.43,257.869 1178.06,257.869C1198.41,257.867 1215.26,266.501 1238.82,268.856C1249.01,269.874 1259.36,270.488 1269.62,270.488C1289.71,270.488 1309.46,268.134 1326.99,261.841C1335.29,258.861 1343.04,257.815 1350.92,257.815C1359.41,257.815 1368.04,259.03 1377.64,260.349C1398.85,263.264 1419.31,264.524 1440.98,264.546L1440.98,264.399C1419.31,264.377 1398.87,263.117 1377.66,260.205C1368.06,258.884 1359.42,257.668 1350.92,257.668C1343.03,257.668 1335.26,258.716 1326.94,261.702C1309.44,267.988 1289.7,270.341 1269.62,270.341C1259.36,270.341 1249.02,269.727 1238.83,268.71C1215.3,266.361 1198.46,257.723 1178.06,257.722C1171.42,257.722 1164.41,258.637 1156.67,260.981C1133.01,268.151 1114.61,267.284 1088.83,268.865C1081.23,269.332 1073.79,270.231 1066.33,270.231C1062.03,270.231 1057.72,269.933 1053.37,269.081C1041.76,266.814 1032.69,261.776 1020.59,260.232C1015.9,259.633 1011.48,259.365 1007.26,259.365C980.392,259.367 961.885,270.234 935.474,275.715C927.607,277.348 920.496,278.028 913.832,278.028C890.886,278.029 873.231,269.964 848.332,264.986C841.498,263.619 835.408,263.046 829.556,263.046C819.357,263.046 809.883,264.788 798.452,267.114C780.094,270.85 760.993,272.938 742.104,275.267L742.122,275.413Z" style="fill:rgb(86,197,205);fill-rule:nonzero;"/>
                <path d="M738.949,277.259C757.389,275.959 775.729,274.892 793.281,270.823C805.363,268.023 814.045,266.244 824.159,266.244C829.63,266.244 835.522,266.764 842.598,267.927C868.591,272.197 890.966,279.956 916.333,279.956C923.2,279.956 930.287,279.387 937.723,278.026C953.356,275.165 966.577,268.142 982.14,265.845C987.028,265.123 992.746,264.844 998.615,264.844C1006.9,264.844 1015.5,265.401 1022.48,266.053C1033.82,267.108 1043.6,271.051 1054.8,272.191C1057.13,272.428 1059.41,272.529 1061.66,272.529C1071.79,272.529 1081.2,270.489 1091.42,269.749C1093.85,269.573 1096.24,269.501 1098.6,269.501C1108.95,269.5 1118.85,270.893 1129.39,271.154C1130.78,271.189 1132.08,271.206 1133.33,271.206C1146.29,271.207 1152.15,269.309 1164.3,264.942C1173.13,261.77 1178.82,259.86 1185.91,259.86C1189.78,259.86 1194.06,260.426 1199.5,261.668C1213.9,264.956 1222.36,270.883 1238.61,271.83C1240.95,271.966 1243.28,272.022 1245.6,272.022C1256.29,272.022 1266.82,270.839 1277.54,270.839C1280.2,270.839 1282.86,270.912 1285.55,271.093C1289.91,271.387 1293.73,271.552 1297.22,271.552C1308.75,271.552 1316.72,269.756 1328.99,264.892C1337.14,261.662 1343.9,260.456 1350.69,260.456C1358.23,260.456 1365.82,261.938 1375.42,263.796C1391.27,266.86 1407.51,267.566 1423.85,267.566C1431,267.566 1438.17,267.431 1445.34,267.299L1445.34,267.152C1438.17,267.284 1431,267.42 1423.85,267.42C1407.51,267.42 1391.29,266.713 1375.45,263.652C1365.85,261.794 1358.25,260.309 1350.69,260.309C1343.88,260.309 1337.1,261.52 1328.94,264.756C1316.67,269.615 1308.73,271.404 1297.22,271.405C1293.73,271.405 1289.92,271.24 1285.55,270.946C1282.87,270.765 1280.2,270.693 1277.54,270.693C1266.81,270.693 1256.28,271.875 1245.6,271.875C1243.28,271.875 1240.96,271.819 1238.62,271.684C1222.41,270.74 1213.97,264.823 1199.53,261.525C1194.09,260.281 1189.79,259.712 1185.91,259.712C1178.79,259.712 1173.08,261.633 1164.25,264.804C1152.09,269.171 1146.27,271.058 1133.33,271.059C1132.08,271.059 1130.78,271.042 1129.4,271.008C1118.86,270.746 1108.96,269.354 1098.6,269.354C1096.24,269.354 1093.84,269.427 1091.41,269.603C1081.17,270.344 1071.77,272.382 1061.66,272.382C1059.42,272.382 1057.14,272.282 1054.81,272.045C1043.64,270.91 1033.86,266.966 1022.5,265.906C1015.51,265.254 1006.91,264.697 998.615,264.697C992.741,264.697 987.017,264.976 982.118,265.7C966.523,268.004 953.301,275.028 937.697,277.882C930.27,279.241 923.192,279.809 916.333,279.809C890.997,279.81 868.631,272.056 842.622,267.782C835.54,266.619 829.64,266.097 824.159,266.097C814.027,266.097 805.33,267.88 793.248,270.68C775.713,274.745 757.379,275.813 738.938,277.112L738.949,277.259Z" style="fill:rgb(86,197,205);fill-rule:nonzero;"/>
                <path d="M736.742,279.66C754.314,279.15 772.129,279.096 788.631,274.73C801.252,271.39 808.958,269.393 819.33,269.393C824,269.393 829.211,269.798 835.655,270.668C864.603,274.579 890.675,281.849 918.585,281.849C928.227,281.849 938.088,280.981 948.362,278.807C962.736,275.765 974.166,270.827 989.486,270.06C991.119,269.978 992.785,269.942 994.472,269.942C1003.15,269.942 1012.41,270.884 1020.76,271.298C1031.36,271.822 1040.69,273.937 1051.1,274.81C1053.17,274.984 1055.16,275.06 1057.09,275.06C1069.91,275.06 1080.24,271.7 1093.23,270.794C1095.21,270.655 1097.17,270.593 1099.1,270.593C1112.63,270.593 1125.14,273.624 1138.67,274.686C1141.18,274.884 1143.42,274.979 1145.45,274.979C1156.94,274.98 1161.7,271.925 1172.81,267.315C1179.71,264.447 1184.34,262.261 1191.2,262.261C1193.28,262.261 1195.57,262.462 1198.19,262.909C1212.53,265.348 1218.08,274.512 1234.76,275.248C1236.16,275.31 1237.55,275.337 1238.92,275.337C1252.25,275.337 1264.29,272.702 1277.46,272.703C1280.73,272.703 1284.07,272.865 1287.52,273.271C1293.61,273.987 1298.53,274.378 1302.91,274.378C1312.95,274.378 1320.15,272.322 1331.9,267.425C1339.32,264.332 1345.05,263.14 1350.57,263.139C1357.72,263.139 1364.53,265.145 1374.23,267.632C1388.25,271.228 1404.26,271.966 1420.12,271.966C1430.51,271.966 1440.83,271.65 1450.51,271.611L1450.5,271.464C1440.83,271.503 1430.51,271.82 1420.12,271.82C1404.26,271.82 1388.27,271.081 1374.26,267.489C1364.57,265.005 1357.75,262.993 1350.57,262.993C1345.03,262.992 1339.28,264.192 1331.84,267.29C1320.09,272.184 1312.93,274.23 1302.91,274.231C1298.54,274.231 1293.62,273.84 1287.54,273.125C1284.08,272.719 1280.74,272.556 1277.46,272.556C1264.27,272.556 1252.23,275.191 1238.92,275.19C1237.55,275.19 1236.17,275.163 1234.77,275.101C1218.16,274.377 1212.62,265.226 1198.21,262.765C1195.59,262.317 1193.29,262.115 1191.2,262.115C1184.31,262.115 1179.65,264.314 1172.75,267.179C1161.63,271.795 1156.91,274.831 1145.45,274.832C1143.42,274.832 1141.19,274.737 1138.68,274.54C1125.16,273.479 1112.66,270.447 1099.1,270.446C1097.17,270.446 1095.21,270.509 1093.22,270.647C1080.21,271.557 1069.88,274.914 1057.09,274.913C1055.16,274.913 1053.18,274.837 1051.11,274.664C1040.72,273.792 1031.39,271.676 1020.77,271.151C1012.42,270.738 1003.16,269.795 994.472,269.795C992.783,269.795 991.115,269.831 989.479,269.913C974.129,270.683 962.688,275.626 948.332,278.664C938.069,280.835 928.218,281.703 918.585,281.703C890.701,281.703 864.636,274.436 835.675,270.523C829.227,269.652 824.008,269.246 819.33,269.246C808.937,269.246 801.213,271.248 788.594,274.588C772.117,278.948 754.312,279.004 736.737,279.513L736.742,279.66Z" style="fill:rgb(86,197,205);fill-rule:nonzero;"/>
                <path d="M735.915,282.733C753.634,282.595 770.271,282.518 786.984,278.39C800.397,275.076 807.029,272.872 817.542,272.872C821.898,272.872 826.922,273.25 833.371,274.086C862.562,277.869 889.919,284.681 918.494,284.681C928.407,284.681 938.466,283.861 948.799,281.81C963.01,278.989 974.377,274.758 989.432,274.223C990.707,274.177 991.998,274.157 993.299,274.157C1002.55,274.157 1012.35,275.188 1021.39,275.572C1031.58,276.006 1041.43,277.718 1051.51,278.221C1052.76,278.283 1053.99,278.312 1055.2,278.312C1069.15,278.311 1080.27,274.431 1094,273.361C1096.24,273.186 1098.44,273.108 1100.6,273.108C1114.36,273.107 1126.63,276.298 1140.43,277.998C1144.09,278.448 1147.17,278.66 1149.88,278.66C1160.08,278.661 1164.96,275.633 1175.32,270.943C1182.08,267.888 1186.46,265.393 1193.33,265.393C1195.43,265.393 1197.76,265.625 1200.46,266.145C1207.45,267.494 1211.73,270.509 1216.39,273.251C1221.04,275.992 1226.07,278.455 1234.52,278.667C1235.27,278.686 1236.01,278.695 1236.75,278.695C1251.02,278.694 1262.88,275.316 1276.61,275.317C1280.02,275.317 1283.55,275.525 1287.26,276.046C1294.54,277.068 1300.15,277.655 1305.12,277.655C1314.27,277.655 1321.29,275.665 1332.63,270.749C1340.04,267.536 1345.27,266.332 1350.07,266.332C1356.89,266.332 1362.87,268.768 1373.06,271.355C1398.34,277.771 1429.65,276.8 1456.38,277.953L1456.39,277.807C1429.65,276.653 1398.35,277.622 1373.1,271.213C1362.91,268.629 1356.92,266.186 1350.07,266.186C1345.24,266.185 1340,267.397 1332.57,270.614C1321.23,275.527 1314.25,277.507 1305.12,277.508C1300.16,277.508 1294.56,276.922 1287.28,275.901C1283.56,275.379 1280.03,275.17 1276.61,275.17C1262.86,275.171 1251,278.549 1236.75,278.548C1236.01,278.548 1235.27,278.539 1234.53,278.52C1226.1,278.307 1221.11,275.861 1216.46,273.124C1211.81,270.388 1207.51,267.355 1200.48,266.001C1197.78,265.479 1195.44,265.246 1193.33,265.246C1186.42,265.246 1182,267.759 1175.26,270.809C1164.89,275.505 1160.04,278.513 1149.88,278.513C1147.18,278.513 1144.1,278.301 1140.45,277.852C1126.66,276.155 1114.38,272.961 1100.6,272.961C1098.43,272.961 1096.24,273.04 1093.99,273.215C1080.23,274.288 1069.12,278.166 1055.2,278.165C1053.99,278.165 1052.77,278.136 1051.52,278.074C1041.45,277.573 1031.6,275.86 1021.4,275.426C1012.37,275.041 1002.56,274.01 993.299,274.01C991.996,274.01 990.704,274.03 989.426,274.076C974.346,274.613 962.967,278.849 948.77,281.666C938.448,283.715 928.399,284.534 918.494,284.534C889.943,284.535 862.592,277.726 833.39,273.941C826.936,273.104 821.906,272.725 817.542,272.725C807.005,272.725 800.354,274.936 786.948,278.247C770.258,282.37 753.634,282.448 735.914,282.586L735.915,282.733Z" style="fill:rgb(86,197,205);fill-rule:nonzero;"/>
                <path d="M726.358,286.179C746.626,285.923 766.783,286.184 786.272,282.257C799.668,279.557 807.302,277.336 818.589,277.336C822.434,277.336 826.703,277.594 831.768,278.178C860.488,281.492 887.683,287.182 916.018,287.182C925.052,287.182 934.2,286.604 943.551,285.186C957.227,283.112 969.59,279.101 983.607,278.138C987.285,277.885 991.122,277.784 995.028,277.784C1004.63,277.784 1014.65,278.391 1023.73,278.827C1034.16,279.328 1044.79,281.352 1055.27,281.352C1055.7,281.352 1056.13,281.349 1056.55,281.342C1068.96,281.137 1080.6,277.647 1093.04,277.361C1093.96,277.34 1094.87,277.331 1095.77,277.331C1113.45,277.33 1129.24,281.135 1145.32,281.135C1153.29,281.135 1161.33,280.201 1169.7,277.406C1179.2,274.235 1184.78,271.064 1193.37,271.064C1196.17,271.064 1199.3,271.402 1202.99,272.19C1217,275.173 1222.07,282.019 1238.14,282.021C1238.6,282.021 1239.07,282.015 1239.55,282.004C1253.7,281.665 1265.32,279.435 1278.44,279.436C1282.3,279.436 1286.3,279.629 1290.53,280.122C1295.58,280.711 1299.84,281.001 1303.68,281.001C1314.39,281.002 1321.81,278.733 1334.06,274.367C1340.97,271.903 1346.54,270.987 1351.89,270.987C1359.37,270.987 1366.43,272.775 1376.16,274.636C1402.67,279.709 1430.94,279.781 1458.38,280.557L1458.38,280.41C1430.94,279.635 1402.68,279.562 1376.18,274.491C1366.47,272.632 1359.39,270.841 1351.89,270.84C1346.52,270.84 1340.94,271.76 1334.01,274.229C1321.76,278.595 1314.37,280.854 1303.68,280.855C1299.85,280.855 1295.6,280.564 1290.54,279.976C1286.31,279.483 1282.31,279.289 1278.44,279.289C1265.3,279.289 1253.68,281.519 1239.55,281.857C1239.07,281.869 1238.6,281.874 1238.14,281.874C1222.13,281.876 1217.08,275.047 1203.02,272.046C1199.32,271.257 1196.18,270.918 1193.37,270.918C1184.73,270.918 1179.14,274.103 1169.66,277.266C1161.3,280.056 1153.28,280.988 1145.32,280.988C1129.26,280.989 1113.47,277.184 1095.77,277.184C1094.87,277.184 1093.96,277.194 1093.04,277.215C1080.57,277.502 1068.93,280.992 1056.55,281.195C1056.12,281.202 1055.7,281.205 1055.27,281.205C1044.81,281.206 1034.18,279.182 1023.74,278.681C1014.66,278.245 1004.64,277.637 995.028,277.637C991.12,277.637 987.279,277.738 983.597,277.991C969.557,278.957 957.19,282.97 943.529,285.041C934.187,286.458 925.045,287.035 916.018,287.035C887.703,287.036 860.513,281.348 831.785,278.033C826.715,277.447 822.44,277.189 818.589,277.189C807.281,277.189 799.631,279.415 786.243,282.113C766.774,286.036 746.627,285.776 726.356,286.032L726.358,286.179Z" style="fill:rgb(86,197,205);fill-rule:nonzero;"/>
                <path d="M705.885,289.625C731.927,289.302 759.349,290.204 784.916,286.556C797.369,284.78 807.988,282.911 820.037,282.912C823.025,282.912 826.1,283.026 829.314,283.286C857.294,285.548 883.948,288.829 911.678,288.829C918.808,288.829 926.009,288.612 933.322,288.105C958.973,286.327 982.107,281.807 1008.09,281.808C1009.14,281.808 1010.19,281.815 1011.26,281.83C1022.86,281.998 1034.2,283.536 1045.73,283.907C1046.81,283.942 1047.88,283.958 1048.94,283.958C1061.46,283.958 1073.24,281.754 1085.71,281.754C1087.47,281.754 1089.25,281.798 1091.04,281.898C1107.51,282.82 1122.96,284.594 1138.54,284.594C1148.42,284.594 1158.35,283.88 1168.61,281.781C1177.19,280.027 1184.7,278.664 1192.77,278.664C1196.47,278.664 1200.29,278.95 1204.38,279.614C1217.86,281.801 1228.47,285.754 1242.7,285.755C1242.92,285.755 1243.13,285.754 1243.34,285.752C1257,285.638 1269.89,284.123 1283.36,284.123C1285.94,284.123 1288.54,284.179 1291.17,284.311C1294.11,284.457 1296.84,284.531 1299.45,284.531C1310.81,284.531 1319.67,283.132 1331.74,280.341C1341.57,278.068 1350.53,277.18 1359.95,277.18C1365.19,277.18 1370.58,277.455 1376.34,277.918C1404.49,280.182 1431.4,282.683 1459.96,283.144L1459.97,282.997C1431.41,282.536 1404.51,280.036 1376.35,277.772C1370.59,277.308 1365.2,277.033 1359.95,277.033C1350.52,277.033 1341.55,277.922 1331.71,280.198C1319.64,282.988 1310.8,284.384 1299.45,284.384C1296.85,284.384 1294.11,284.311 1291.18,284.164C1288.54,284.032 1285.94,283.976 1283.36,283.976C1269.88,283.977 1256.99,285.492 1243.34,285.605C1243.13,285.607 1242.92,285.608 1242.7,285.608C1228.5,285.608 1217.9,281.661 1204.41,279.469C1200.3,278.804 1196.48,278.517 1192.77,278.517C1184.68,278.517 1177.16,279.883 1168.58,281.637C1158.33,283.734 1148.41,284.447 1138.54,284.447C1122.98,284.447 1107.52,282.673 1091.05,281.752C1089.26,281.651 1087.48,281.607 1085.71,281.607C1073.22,281.608 1061.44,283.811 1048.94,283.811C1047.88,283.811 1046.81,283.795 1045.73,283.761C1034.22,283.39 1022.88,281.852 1011.26,281.683C1010.2,281.668 1009.14,281.661 1008.09,281.661C982.09,281.661 958.952,286.182 933.312,287.959C926.003,288.466 918.805,288.683 911.678,288.683C883.96,288.683 857.309,285.402 829.326,283.14C826.108,282.88 823.029,282.765 820.037,282.765C807.972,282.765 797.345,284.635 784.895,286.411C759.346,290.056 731.929,289.155 705.883,289.478L705.885,289.625Z" style="fill:rgb(86,197,205);fill-rule:nonzero;"/>
                <path d="M686.682,293.071C718.892,292.765 751.5,293.154 783.565,290.918C796.397,290.023 808.822,289.099 821.505,289.099C825.806,289.099 830.138,289.205 834.524,289.455C850.11,290.343 865.397,290.538 880.686,290.538C892.751,290.538 904.817,290.416 917.032,290.416C920.752,290.416 924.486,290.428 928.238,290.457C928.815,290.462 929.392,290.464 929.969,290.464C955.584,290.464 980.411,286.081 1006.13,286.082C1006.73,286.082 1007.33,286.084 1007.93,286.089C1020.26,286.189 1032.65,287.822 1044.93,287.823C1045.02,287.823 1045.11,287.823 1045.2,287.822C1056.89,287.8 1066.35,286.166 1076.94,286.167C1080.76,286.167 1084.72,286.378 1088.98,286.954C1101.21,288.602 1113.45,289.211 1125.75,289.211C1138.29,289.211 1150.89,288.578 1163.58,287.764C1168.47,287.45 1173.28,287.32 1178.05,287.32C1200.56,287.32 1221.96,290.21 1244.71,290.21C1245.26,290.21 1245.81,290.209 1246.36,290.205C1273.96,290.032 1302.4,289.602 1329.47,286.445C1345.11,284.621 1360.32,284.018 1375.4,284.018C1403.84,284.018 1431.86,286.161 1461.49,286.312L1461.49,286.165C1431.87,286.014 1403.85,283.871 1375.4,283.871C1360.31,283.871 1345.1,284.475 1329.46,286.299C1302.39,289.455 1273.95,289.886 1246.35,290.058C1245.81,290.062 1245.26,290.063 1244.71,290.063C1221.97,290.064 1200.57,287.174 1178.05,287.174C1173.28,287.174 1168.46,287.303 1163.57,287.617C1150.88,288.431 1138.29,289.065 1125.75,289.065C1113.46,289.065 1101.22,288.455 1089,286.808C1084.73,286.232 1080.76,286.02 1076.94,286.02C1066.34,286.02 1056.87,287.654 1045.2,287.676L1044.93,287.676C1032.66,287.676 1020.28,286.042 1007.94,285.942C1007.33,285.937 1006.73,285.935 1006.13,285.935C980.394,285.935 955.567,290.317 929.969,290.317C929.393,290.317 928.816,290.315 928.239,290.31C924.487,290.281 920.752,290.269 917.032,290.269C904.816,290.269 892.75,290.391 880.686,290.391C865.398,290.391 850.114,290.196 834.533,289.309C830.143,289.059 825.809,288.952 821.505,288.952C808.815,288.952 796.386,289.877 783.555,290.771C751.498,293.007 718.893,292.618 686.68,292.925L686.682,293.071Z" style="fill:rgb(86,197,205);fill-rule:nonzero;"/>
                <path d="M680.418,296.52C722.237,296.345 764.456,294.351 806.392,294.351C815.62,294.351 824.836,294.448 834.03,294.682C837.523,294.771 841.003,294.809 844.473,294.809C865.486,294.809 886.102,293.41 906.93,293.41C913.748,293.41 920.589,293.56 927.474,293.958C932.514,294.249 937.54,294.366 942.557,294.366C963.312,294.366 983.92,292.362 1004.79,292.362C1005.55,292.362 1006.31,292.365 1007.06,292.37C1017.55,292.446 1028.3,293.323 1038.85,293.324C1040.87,293.324 1042.89,293.291 1044.89,293.215C1056.36,292.778 1064.34,291.204 1073.55,291.205C1078.21,291.205 1083.17,291.605 1089.06,292.756C1098.13,294.526 1107.56,295.075 1117.13,295.075C1131.81,295.075 1146.81,293.782 1161.22,293.633C1163.48,293.61 1165.73,293.599 1167.98,293.599C1191.45,293.599 1214.89,294.759 1238.29,294.759C1240.36,294.759 1242.43,294.75 1244.5,294.731C1273.4,294.454 1302.56,294.118 1331.36,292.691C1349.23,291.804 1366.32,289.329 1383.95,288.235C1388.3,287.966 1392.71,287.854 1397.16,287.854C1418.25,287.854 1440.32,290.347 1461.37,290.347C1461.97,290.347 1462.56,290.345 1463.16,290.341L1463.16,290.194C1462.56,290.198 1461.97,290.2 1461.37,290.2C1440.33,290.2 1418.26,287.708 1397.16,287.708C1392.71,287.708 1388.29,287.819 1383.94,288.089C1366.3,289.183 1349.21,291.658 1331.36,292.544C1302.55,293.971 1273.4,294.307 1244.5,294.584C1242.43,294.603 1240.36,294.613 1238.29,294.613C1214.89,294.613 1191.45,293.452 1167.98,293.452C1165.73,293.452 1163.47,293.463 1161.22,293.486C1146.8,293.635 1131.81,294.928 1117.13,294.928C1107.57,294.928 1098.14,294.38 1089.09,292.612C1083.19,291.459 1078.21,291.058 1073.55,291.058C1064.32,291.058 1056.34,292.633 1044.89,293.068C1042.88,293.144 1040.87,293.177 1038.85,293.177C1028.3,293.177 1017.56,292.299 1007.06,292.223C1006.31,292.218 1005.55,292.215 1004.79,292.215C983.911,292.215 963.303,294.219 942.557,294.219C937.542,294.219 932.519,294.102 927.483,293.811C920.594,293.413 913.75,293.264 906.93,293.264C886.095,293.264 865.48,294.662 844.473,294.662C841.004,294.662 837.526,294.624 834.033,294.535C824.838,294.301 815.622,294.205 806.392,294.205C764.451,294.205 722.233,296.198 680.417,296.373L680.418,296.52Z" style="fill:rgb(86,197,205);fill-rule:nonzero;"/>
                <path d="M680.417,299.966L681.884,299.966C724.549,299.966 767.235,299.302 809.902,299.302C818.148,299.302 826.393,299.327 834.636,299.386C836.553,299.4 838.468,299.406 840.381,299.406C861.573,299.406 882.625,298.63 903.74,298.63C910.939,298.63 918.145,298.72 925.367,298.962C932.882,299.214 940.399,299.304 947.917,299.304C966.755,299.304 985.599,298.739 1004.45,298.739C1005.28,298.739 1006.11,298.74 1006.95,298.742C1007.37,298.744 1007.8,298.744 1008.23,298.744C1026.03,298.744 1044.32,297.749 1062.26,297.749C1070.75,297.749 1079.17,297.972 1087.41,298.628C1107.77,300.248 1128.86,300.752 1150.12,300.752C1181.57,300.752 1213.4,299.65 1243.79,299.429C1317.74,298.891 1391.47,298.152 1465.28,296.373L1465.28,296.226C1391.47,298.006 1317.74,298.744 1243.79,299.282C1213.39,299.503 1181.57,300.605 1150.12,300.605C1128.86,300.605 1107.77,300.101 1087.42,298.481C1079.17,297.825 1070.76,297.602 1062.26,297.602C1044.32,297.602 1026.02,298.597 1008.23,298.597C1007.8,298.597 1007.37,298.597 1006.95,298.595C1006.11,298.593 1005.28,298.592 1004.45,298.592C985.596,298.592 966.752,299.157 947.917,299.157C940.4,299.157 932.885,299.067 925.372,298.815C918.148,298.573 910.94,298.483 903.74,298.483C882.621,298.483 861.569,299.259 840.381,299.259C838.468,299.259 836.553,299.253 834.637,299.239C826.393,299.18 818.148,299.155 809.902,299.155C767.234,299.155 724.547,299.819 681.884,299.819L680.417,299.819L680.417,299.966Z" style="fill:rgb(86,197,205);fill-rule:nonzero;"/>
                <path d="M680.417,303.412C827.526,303.419 974.635,303.469 1121.74,303.469C1236.99,303.469 1352.24,303.438 1467.48,303.334L1467.48,303.187C1352.24,303.291 1236.99,303.322 1121.74,303.322C974.635,303.322 827.526,303.273 680.417,303.265L680.417,303.412Z" style="fill:rgb(86,197,205);fill-rule:nonzero;"/>
            </g>
        </g>
    </g>
    <defs>
        <radialGradient id="_Radial2" cx="0" cy="0" r="1" gradientUnits="userSpaceOnUse" gradientTransform="matrix(523.188,0,0,474.759,1078.26,246.968)"><stop offset="0" style="stop-color:rgb(239,94,162);stop-opacity:1"/><stop offset="0.3" style="stop-color:rgb(156,88,149);stop-opacity:1"/><stop offset="0.7" style="stop-color:rgb(105,86,142);stop-opacity:1"/><stop offset="1" style="stop-color:rgb(98,86,141);stop-opacity:1"/></radialGradient>
        <radialGradient id="_Radial3" cx="0" cy="0" r="1" gradientUnits="userSpaceOnUse" gradientTransform="matrix(523.188,0,0,474.759,1078.26,246.968)"><stop offset="0" style="stop-color:rgb(239,94,162);stop-opacity:1"/><stop offset="0.3" style="stop-color:rgb(156,88,149);stop-opacity:1"/><stop offset="0.7" style="stop-color:rgb(105,86,142);stop-opacity:1"/><stop offset="1" style="stop-color:rgb(98,86,141);stop-opacity:1"/></radialGradient>
        <radialGradient id="_Radial4" cx="0" cy="0" r="1" gradientUnits="userSpaceOnUse" gradientTransform="matrix(523.188,0,0,474.759,1078.26,246.968)"><stop offset="0" style="stop-color:rgb(239,94,162);stop-opacity:1"/><stop offset="0.3" style="stop-color:rgb(156,88,149);stop-opacity:1"/><stop offset="0.7" style="stop-color:rgb(105,86,142);stop-opacity:1"/><stop offset="1" style="stop-color:rgb(98,86,141);stop-opacity:1"/></radialGradient>
        <radialGradient id="_Radial5" cx="0" cy="0" r="1" gradientUnits="userSpaceOnUse" gradientTransform="matrix(523.188,0,0,474.759,1078.26,246.968)"><stop offset="0" style="stop-color:rgb(239,94,162);stop-opacity:1"/><stop offset="0.3" style="stop-color:rgb(156,88,149);stop-opacity:1"/><stop offset="0.7" style="stop-color:rgb(105,86,142);stop-opacity:1"/><stop offset="1" style="stop-color:rgb(98,86,141);stop-opacity:1"/></radialGradient>
        <radialGradient id="_Radial6" cx="0" cy="0" r="1" gradientUnits="userSpaceOnUse" gradientTransform="matrix(523.188,0,0,474.759,1078.26,246.968)"><stop offset="0" style="stop-color:rgb(239,94,162);stop-opacity:1"/><stop offset="0.3" style="stop-color:rgb(156,88,149);stop-opacity:1"/><stop offset="0.7" style="stop-color:rgb(105,86,142);stop-opacity:1"/><stop offset="1" style="stop-color:rgb(98,86,141);stop-opacity:1"/></radialGradient>
        <radialGradient id="_Radial7" cx="0" cy="0" r="1" gradientUnits="userSpaceOnUse" gradientTransform="matrix(523.188,0,0,474.759,1078.26,246.968)"><stop offset="0" style="stop-color:rgb(239,94,162);stop-opacity:1"/><stop offset="0.3" style="stop-color:rgb(156,88,149);stop-opacity:1"/><stop offset="0.7" style="stop-color:rgb(105,86,142);stop-opacity:1"/><stop offset="1" style="stop-color:rgb(98,86,141);stop-opacity:1"/></radialGradient>
        <radialGradient id="_Radial8" cx="0" cy="0" r="1" gradientUnits="userSpaceOnUse" gradientTransform="matrix(523.188,0,0,474.759,1078.26,246.968)"><stop offset="0" style="stop-color:rgb(239,94,162);stop-opacity:1"/><stop offset="0.3" style="stop-color:rgb(156,88,149);stop-opacity:1"/><stop offset="0.7" style="stop-color:rgb(105,86,142);stop-opacity:1"/><stop offset="1" style="stop-color:rgb(98,86,141);stop-opacity:1"/></radialGradient>
        <radialGradient id="_Radial9" cx="0" cy="0" r="1" gradientUnits="userSpaceOnUse" gradientTransform="matrix(523.188,0,0,474.759,1078.26,246.968)"><stop offset="0" style="stop-color:rgb(239,94,162);stop-opacity:1"/><stop offset="0.3" style="stop-color:rgb(156,88,149);stop-opacity:1"/><stop offset="0.7" style="stop-color:rgb(105,86,142);stop-opacity:1"/><stop offset="1" style="stop-color:rgb(98,86,141);stop-opacity:1"/></radialGradient>
        <radialGradient id="_Radial10" cx="0" cy="0" r="1" gradientUnits="userSpaceOnUse" gradientTransform="matrix(523.188,0,0,474.759,1078.26,246.968)"><stop offset="0" style="stop-color:rgb(239,94,162);stop-opacity:1"/><stop offset="0.3" style="stop-color:rgb(156,88,149);stop-opacity:1"/><stop offset="0.7" style="stop-color:rgb(105,86,142);stop-opacity:1"/><stop offset="1" style="stop-color:rgb(98,86,141);stop-opacity:1"/></radialGradient>
        <radialGradient id="_Radial11" cx="0" cy="0" r="1" gradientUnits="userSpaceOnUse" gradientTransform="matrix(523.188,0,0,474.759,1078.26,246.968)"><stop offset="0" style="stop-color:rgb(239,94,162);stop-opacity:1"/><stop offset="0.3" style="stop-color:rgb(156,88,149);stop-opacity:1"/><stop offset="0.7" style="stop-color:rgb(105,86,142);stop-opacity:1"/><stop offset="1" style="stop-color:rgb(98,86,141);stop-opacity:1"/></radialGradient>
        <radialGradient id="_Radial12" cx="0" cy="0" r="1" gradientUnits="userSpaceOnUse" gradientTransform="matrix(523.188,0,0,474.759,1078.26,246.968)"><stop offset="0" style="stop-color:rgb(239,94,162);stop-opacity:1"/><stop offset="0.3" style="stop-color:rgb(156,88,149);stop-opacity:1"/><stop offset="0.7" style="stop-color:rgb(105,86,142);stop-opacity:1"/><stop offset="1" style="stop-color:rgb(98,86,141);stop-opacity:1"/></radialGradient>
        <radialGradient id="_Radial13" cx="0" cy="0" r="1" gradientUnits="userSpaceOnUse" gradientTransform="matrix(523.188,0,0,474.759,1078.26,246.968)"><stop offset="0" style="stop-color:rgb(239,94,162);stop-opacity:1"/><stop offset="0.3" style="stop-color:rgb(156,88,149);stop-opacity:1"/><stop offset="0.7" style="stop-color:rgb(105,86,142);stop-opacity:1"/><stop offset="1" style="stop-color:rgb(98,86,141);stop-opacity:1"/></radialGradient>
        <radialGradient id="_Radial14" cx="0" cy="0" r="1" gradientUnits="userSpaceOnUse" gradientTransform="matrix(523.188,0,0,474.759,1078.26,246.968)"><stop offset="0" style="stop-color:rgb(239,94,162);stop-opacity:1"/><stop offset="0.3" style="stop-color:rgb(156,88,149);stop-opacity:1"/><stop offset="0.7" style="stop-color:rgb(105,86,142);stop-opacity:1"/><stop offset="1" style="stop-color:rgb(98,86,141);stop-opacity:1"/></radialGradient>
        <radialGradient id="_Radial15" cx="0" cy="0" r="1" gradientUnits="userSpaceOnUse" gradientTransform="matrix(523.188,0,0,474.759,1078.26,246.968)"><stop offset="0" style="stop-color:rgb(239,94,162);stop-opacity:1"/><stop offset="0.3" style="stop-color:rgb(156,88,149);stop-opacity:1"/><stop offset="0.7" style="stop-color:rgb(105,86,142);stop-opacity:1"/><stop offset="1" style="stop-color:rgb(98,86,141);stop-opacity:1"/></radialGradient>
        <radialGradient id="_Radial16" cx="0" cy="0" r="1" gradientUnits="userSpaceOnUse" gradientTransform="matrix(523.188,0,0,474.759,1078.26,246.968)"><stop offset="0" style="stop-color:rgb(239,94,162);stop-opacity:1"/><stop offset="0.3" style="stop-color:rgb(156,88,149);stop-opacity:1"/><stop offset="0.7" style="stop-color:rgb(105,86,142);stop-opacity:1"/><stop offset="1" style="stop-color:rgb(98,86,141);stop-opacity:1"/></radialGradient>
        <radialGradient id="_Radial17" cx="0" cy="0" r="1" gradientUnits="userSpaceOnUse" gradientTransform="matrix(523.188,0,0,474.759,1078.26,246.968)"><stop offset="0" style="stop-color:rgb(239,94,162);stop-opacity:1"/><stop offset="0.3" style="stop-color:rgb(156,88,149);stop-opacity:1"/><stop offset="0.7" style="stop-color:rgb(105,86,142);stop-opacity:1"/><stop offset="1" style="stop-color:rgb(98,86,141);stop-opacity:1"/></radialGradient>
        <radialGradient id="_Radial18" cx="0" cy="0" r="1" gradientUnits="userSpaceOnUse" gradientTransform="matrix(523.188,0,0,474.759,1078.26,246.968)"><stop offset="0" style="stop-color:rgb(239,94,162);stop-opacity:1"/><stop offset="0.3" style="stop-color:rgb(156,88,149);stop-opacity:1"/><stop offset="0.7" style="stop-color:rgb(105,86,142);stop-opacity:1"/><stop offset="1" style="stop-color:rgb(98,86,141);stop-opacity:1"/></radialGradient>
        <radialGradient id="_Radial19" cx="0" cy="0" r="1" gradientUnits="userSpaceOnUse" gradientTransform="matrix(523.188,0,0,474.759,1078.26,246.968)"><stop offset="0" style="stop-color:rgb(239,94,162);stop-opacity:1"/><stop offset="0.3" style="stop-color:rgb(156,88,149);stop-opacity:1"/><stop offset="0.7" style="stop-color:rgb(105,86,142);stop-opacity:1"/><stop offset="1" style="stop-color:rgb(98,86,141);stop-opacity:1"/></radialGradient>
        <radialGradient id="_Radial20" cx="0" cy="0" r="1" gradientUnits="userSpaceOnUse" gradientTransform="matrix(523.188,0,0,474.759,1078.26,246.968)"><stop offset="0" style="stop-color:rgb(239,94,162);stop-opacity:1"/><stop offset="0.3" style="stop-color:rgb(156,88,149);stop-opacity:1"/><stop offset="0.7" style="stop-color:rgb(105,86,142);stop-opacity:1"/><stop offset="1" style="stop-color:rgb(98,86,141);stop-opacity:1"/></radialGradient>
        <radialGradient id="_Radial21" cx="0" cy="0" r="1" gradientUnits="userSpaceOnUse" gradientTransform="matrix(523.188,0,0,474.759,1078.26,246.968)"><stop offset="0" style="stop-color:rgb(239,94,162);stop-opacity:1"/><stop offset="0.3" style="stop-color:rgb(156,88,149);stop-opacity:1"/><stop offset="0.7" style="stop-color:rgb(105,86,142);stop-opacity:1"/><stop offset="1" style="stop-color:rgb(98,86,141);stop-opacity:1"/></radialGradient>
        <radialGradient id="_Radial22" cx="0" cy="0" r="1" gradientUnits="userSpaceOnUse" gradientTransform="matrix(523.188,0,0,474.759,1078.26,246.968)"><stop offset="0" style="stop-color:rgb(239,94,162);stop-opacity:1"/><stop offset="0.3" style="stop-color:rgb(156,88,149);stop-opacity:1"/><stop offset="0.7" style="stop-color:rgb(105,86,142);stop-opacity:1"/><stop offset="1" style="stop-color:rgb(98,86,141);stop-opacity:1"/></radialGradient>
        <radialGradient id="_Radial23" cx="0" cy="0" r="1" gradientUnits="userSpaceOnUse" gradientTransform="matrix(523.188,0,0,474.759,1078.26,246.968)"><stop offset="0" style="stop-color:rgb(239,94,162);stop-opacity:1"/><stop offset="0.3" style="stop-color:rgb(156,88,149);stop-opacity:1"/><stop offset="0.7" style="stop-color:rgb(105,86,142);stop-opacity:1"/><stop offset="1" style="stop-color:rgb(98,86,141);stop-opacity:1"/></radialGradient>
        <radialGradient id="_Radial24" cx="0" cy="0" r="1" gradientUnits="userSpaceOnUse" gradientTransform="matrix(523.188,0,0,474.759,1078.26,246.968)"><stop offset="0" style="stop-color:rgb(239,94,162);stop-opacity:1"/><stop offset="0.3" style="stop-color:rgb(156,88,149);stop-opacity:1"/><stop offset="0.7" style="stop-color:rgb(105,86,142);stop-opacity:1"/><stop offset="1" style="stop-color:rgb(98,86,141);stop-opacity:1"/></radialGradient>
        <radialGradient id="_Radial25" cx="0" cy="0" r="1" gradientUnits="userSpaceOnUse" gradientTransform="matrix(523.188,0,0,474.759,1078.26,246.968)"><stop offset="0" style="stop-color:rgb(239,94,162);stop-opacity:1"/><stop offset="0.3" style="stop-color:rgb(156,88,149);stop-opacity:1"/><stop offset="0.7" style="stop-color:rgb(105,86,142);stop-opacity:1"/><stop offset="1" style="stop-color:rgb(98,86,141);stop-opacity:1"/></radialGradient>
        <radialGradient id="_Radial26" cx="0" cy="0" r="1" gradientUnits="userSpaceOnUse" gradientTransform="matrix(523.188,0,0,474.759,1078.26,246.968)"><stop offset="0" style="stop-color:rgb(239,94,162);stop-opacity:1"/><stop offset="0.3" style="stop-color:rgb(156,88,149);stop-opacity:1"/><stop offset="0.7" style="stop-color:rgb(105,86,142);stop-opacity:1"/><stop offset="1" style="stop-color:rgb(98,86,141);stop-opacity:1"/></radialGradient>
        <radialGradient id="_Radial27" cx="0" cy="0" r="1" gradientUnits="userSpaceOnUse" gradientTransform="matrix(523.188,0,0,474.759,1078.26,246.968)"><stop offset="0" style="stop-color:rgb(239,94,162);stop-opacity:1"/><stop offset="0.3" style="stop-color:rgb(156,88,149);stop-opacity:1"/><stop offset="0.7" style="stop-color:rgb(105,86,142);stop-opacity:1"/><stop offset="1" style="stop-color:rgb(98,86,141);stop-opacity:1"/></radialGradient>
        <radialGradient id="_Radial28" cx="0" cy="0" r="1" gradientUnits="userSpaceOnUse" gradientTransform="matrix(523.188,0,0,474.759,1078.26,246.968)"><stop offset="0" style="stop-color:rgb(239,94,162);stop-opacity:1"/><stop offset="0.3" style="stop-color:rgb(156,88,149);stop-opacity:1"/><stop offset="0.7" style="stop-color:rgb(105,86,142);stop-opacity:1"/><stop offset="1" style="stop-color:rgb(98,86,141);stop-opacity:1"/></radialGradient>
        <radialGradient id="_Radial29" cx="0" cy="0" r="1" gradientUnits="userSpaceOnUse" gradientTransform="matrix(523.188,0,0,474.759,1078.26,246.968)"><stop offset="0" style="stop-color:rgb(239,94,162);stop-opacity:1"/><stop offset="0.3" style="stop-color:rgb(156,88,149);stop-opacity:1"/><stop offset="0.7" style="stop-color:rgb(105,86,142);stop-opacity:1"/><stop offset="1" style="stop-color:rgb(98,86,141);stop-opacity:1"/></radialGradient>
        <radialGradient id="_Radial30" cx="0" cy="0" r="1" gradientUnits="userSpaceOnUse" gradientTransform="matrix(523.188,0,0,474.759,1078.26,246.968)"><stop offset="0" style="stop-color:rgb(239,94,162);stop-opacity:1"/><stop offset="0.3" style="stop-color:rgb(156,88,149);stop-opacity:1"/><stop offset="0.7" style="stop-color:rgb(105,86,142);stop-opacity:1"/><stop offset="1" style="stop-color:rgb(98,86,141);stop-opacity:1"/></radialGradient>
        <radialGradient id="_Radial31" cx="0" cy="0" r="1" gradientUnits="userSpaceOnUse" gradientTransform="matrix(523.188,0,0,474.759,1078.26,246.968)"><stop offset="0" style="stop-color:rgb(239,94,162);stop-opacity:1"/><stop offset="0.3" style="stop-color:rgb(156,88,149);stop-opacity:1"/><stop offset="0.7" style="stop-color:rgb(105,86,142);stop-opacity:1"/><stop offset="1" style="stop-color:rgb(98,86,141);stop-opacity:1"/></radialGradient>
    </defs>
</svg>
