<?xml version="1.0" encoding="UTF-8" standalone="no"?>
<!DOCTYPE svg PUBLIC "-//W3C//DTD SVG 1.1//EN" "http://www.w3.org/Graphics/SVG/1.1/DTD/svg11.dtd">
<svg width="100%" height="100%" viewBox="0 0 8000 3556" version="1.1" xmlns="http://www.w3.org/2000/svg" xmlns:xlink="http://www.w3.org/1999/xlink" xml:space="preserve" xmlns:serif="http://www.serif.com/" style="fill-rule:evenodd;clip-rule:evenodd;stroke-linejoin:round;stroke-miterlimit:2;">
    <g transform="matrix(5.55556,0,0,5.55556,0,0)">
        <g opacity="0.15">
            <path d="M439.57,249.55C811.873,75.903 1226.27,12.574 1633.44,67.1L1620.96,160.27C1231.59,108.128 835.321,168.687 479.3,334.74L25.06,546.6L-14.67,461.4L439.57,249.55Z" style="fill:url(#_Linear1);"/>
            <path d="M272.3,266.93C725.785,207.052 1187.07,278.416 1601.26,472.53L1556.84,567.31C1160.76,381.685 719.653,313.442 286,370.7L-267.29,443.75L-280.99,339.98L272.3,266.93Z" style="fill:url(#_Linear2);"/>
            <path d="M195.26,416.13C580.634,273.829 998.843,244.947 1400.12,332.92L1379.99,424.74C996.263,340.61 596.342,368.226 227.82,504.3L-242.36,677.92L-274.92,589.74L195.26,416.12L195.26,416.13Z" style="fill:url(#_Linear3);"/>
        </g>
        <path d="M-258.15,719.56L1484.97,202L1667.9,818.12L-75.2,1335.68L-258.15,719.56Z" style="fill:rgb(9,11,17);fill-rule:nonzero;"/>
    </g>
    <defs>
        <linearGradient id="_Linear1" x1="0" y1="0" x2="1" y2="0" gradientUnits="userSpaceOnUse" gradientTransform="matrix(-34,-112,112,-34,793.5,261.5)"><stop offset="0" style="stop-color:black;stop-opacity:0"/><stop offset="0.58" style="stop-color:black;stop-opacity:0"/><stop offset="1" style="stop-color:black;stop-opacity:1"/></linearGradient>
        <linearGradient id="_Linear2" x1="0" y1="0" x2="1" y2="0" gradientUnits="userSpaceOnUse" gradientTransform="matrix(1.35,-130.32,130.32,1.35,644.19,398.02)"><stop offset="0" style="stop-color:black;stop-opacity:0"/><stop offset="0.58" style="stop-color:black;stop-opacity:0"/><stop offset="1" style="stop-color:black;stop-opacity:0.56"/></linearGradient>
        <linearGradient id="_Linear3" x1="0" y1="0" x2="1" y2="0" gradientUnits="userSpaceOnUse" gradientTransform="matrix(-24.64,-114.42,114.42,-24.64,547,457.27)"><stop offset="0" style="stop-color:black;stop-opacity:0"/><stop offset="0.58" style="stop-color:black;stop-opacity:0"/><stop offset="1" style="stop-color:black;stop-opacity:1"/></linearGradient>
    </defs>
</svg>
