<?xml version="1.0" encoding="UTF-8" standalone="no"?>
<!DOCTYPE svg PUBLIC "-//W3C//DTD SVG 1.1//EN" "http://www.w3.org/Graphics/SVG/1.1/DTD/svg11.dtd">
<svg width="100%" height="100%" viewBox="0 0 127 122" version="1.1" xmlns="http://www.w3.org/2000/svg" xmlns:xlink="http://www.w3.org/1999/xlink" xml:space="preserve" xmlns:serif="http://www.serif.com/" style="fill-rule:evenodd;clip-rule:evenodd;stroke-linejoin:round;stroke-miterlimit:2;">
    <g id="XMLID_468_" transform="matrix(0.65104,0,0,0.651042,51.1421,67.4465)">
        <g id="Artboard1">
            <g id="XMLID_468_1" serif:id="XMLID_468_">
                <g id="XMLID_469_" transform="matrix(0.227682,0,0,0.225786,-73.6999,-98.2672)">
                    <path d="M591.958,459.691C590.4,458.943 532.078,430.223 521.714,426.494C517.483,424.974 512.951,423.491 508.13,423.491C500.255,423.491 493.639,427.416 488.486,435.125C482.66,443.784 465.023,464.4 459.574,470.558C458.862,471.371 457.891,472.343 457.309,472.343C456.787,472.343 447.761,468.626 445.029,467.439C382.465,440.262 334.977,374.909 328.465,363.888C327.535,362.304 327.496,361.584 327.488,361.584C327.717,360.745 329.821,358.636 330.906,357.548C334.083,354.405 337.525,350.262 340.855,346.255C342.431,344.356 344.01,342.455 345.561,340.662C350.392,335.042 352.543,330.678 355.036,325.623L356.343,322.997C362.431,310.901 357.231,300.694 355.551,297.397C354.171,294.639 329.545,235.205 326.927,228.961C320.631,213.894 312.312,206.878 300.751,206.878C299.678,206.878 300.751,206.878 296.252,207.068C290.774,207.299 260.943,211.226 247.753,219.54C233.766,228.358 210.104,256.468 210.104,305.901C210.104,350.392 238.338,392.4 250.46,408.377C250.761,408.779 251.314,409.597 252.117,410.771C298.54,478.569 356.413,528.813 415.081,552.249C471.561,574.81 498.306,577.418 513.512,577.418L513.514,577.418C519.904,577.418 525.018,576.917 529.53,576.473L532.392,576.2C551.904,574.47 594.782,552.252 604.535,525.148C612.218,503.8 614.244,480.475 609.132,472.01C605.631,466.255 599.597,463.358 591.958,459.691Z" style="fill-rule:nonzero;"/>
                </g>
                <g id="XMLID_470_" transform="matrix(0.227682,0,0,0.225786,-73.6999,-98.2672)">
                    <path d="M407.101,0C190.436,0 14.166,174.945 14.166,389.982C14.166,459.532 32.779,527.613 68.039,587.197L0.551,786.275C-0.706,789.987 0.229,794.091 2.974,796.886C4.956,798.909 7.644,800 10.39,800C11.442,800 12.501,799.842 13.535,799.512L221.119,733.548C277.925,763.899 342.127,779.919 407.104,779.919C623.748,779.922 800,604.995 800,389.982C800,174.945 623.748,0 407.101,0ZM407.101,698.686C345.961,698.686 286.743,681.031 235.839,647.629C234.127,646.504 232.14,645.927 230.14,645.927C229.083,645.927 228.023,646.088 226.992,646.416L123.005,679.47L156.574,580.434C157.66,577.229 157.117,573.694 155.117,570.961C116.353,517.995 95.862,455.416 95.862,389.982C95.862,219.74 235.483,81.236 407.099,81.236C578.694,81.236 718.299,219.74 718.299,389.982C718.301,560.203 578.699,698.686 407.101,698.686Z" style="fill-rule:nonzero;"/>
                </g>
            </g>
        </g>
    </g>
</svg>
