<?xml version="1.0" encoding="UTF-8" standalone="no"?>
<!DOCTYPE svg PUBLIC "-//W3C//DTD SVG 1.1//EN" "http://www.w3.org/Graphics/SVG/1.1/DTD/svg11.dtd">
<svg width="100%" height="100%" viewBox="0 0 2845 2845" version="1.1" xmlns="http://www.w3.org/2000/svg" xmlns:xlink="http://www.w3.org/1999/xlink" xml:space="preserve" xmlns:serif="http://www.serif.com/" style="fill-rule:evenodd;clip-rule:evenodd;stroke-linejoin:round;stroke-miterlimit:2;">
    <g transform="matrix(5.55556,0,0,5.55556,0,0)">
        <path d="M256,0C115.563,0 -0,115.563 0,256C0,396.437 115.563,512 256,512C396.437,512 512,396.437 512,256C511.848,115.62 396.38,0.152 256,0ZM469.333,256C469.359,297.802 457.02,338.693 433.877,373.504L408.448,348.053C406.455,346.055 405.334,343.345 405.333,340.523L405.333,320C405.333,284.891 376.443,256 341.333,256L277.333,256C265.63,256 256,246.37 256,234.667L256,224C256,218.148 260.815,213.333 266.667,213.333C295.924,213.333 320,189.258 320,160L320,138.667C320,132.815 324.815,128 330.667,128L360.085,128C374.211,127.96 387.765,122.345 397.781,112.384L405.824,104.341C446.453,144.32 469.351,199 469.333,256ZM43.712,276.544L111.083,343.915C123.053,355.962 139.369,362.721 156.352,362.667L213.333,362.667C225.036,362.667 234.667,372.297 234.667,384L234.667,468.245C133.894,457.959 53.605,377.356 43.712,276.544ZM277.333,468.245L277.333,384C277.333,348.891 248.443,320 213.333,320L156.352,320C150.689,320.004 145.252,317.754 141.248,313.749L46.144,218.645C63.974,117.291 152.878,42.661 255.789,42.661C297.209,42.661 337.742,54.75 372.395,77.44L367.616,82.219C365.609,84.198 362.905,85.317 360.085,85.333L330.667,85.333C301.409,85.333 277.333,109.409 277.333,138.667L277.333,160C277.333,165.852 272.518,170.667 266.667,170.667C237.409,170.667 213.333,194.742 213.333,224L213.333,234.667C213.333,269.776 242.224,298.667 277.333,298.667L341.333,298.667C353.036,298.667 362.667,308.297 362.667,320L362.667,340.523C362.707,354.648 368.322,368.203 378.283,378.219L406.805,406.741C372.071,441.596 326.295,463.341 277.333,468.245Z" style="fill:rgb(0,123,255);fill-rule:nonzero;"/>
    </g>
</svg>
